<svg xmlns="http://www.w3.org/2000/svg" width="1400" height="2540">
<defs><style>
.wu-pinyin { font-family: sans-serif; font-size: 24px; fill: #666; }
.hanzi { font-family: "Songti SC", "Noto Serif CJK SC", serif; font-size: 33px; }
.tengwar { font-family: "Alcarin Tengwar"; font-size: 48px; }
.names { font-family: monospace; font-size: 16px; fill: #999; }
</style></defs>
<rect width="1400" height="2540" fill="white"/>
<text x="20" y="30" class="wu-pinyin">nong2 ho3</text>
<text x="20" y="88" class="hanzi">儂好</text>
<text x="20" y="146" class="tengwar"></text>
<text x="20" y="204" class="names">{numen}[o]{noldo}\..{hwesta}[o]_</text>
<text x="20" y="282" class="wu-pinyin">ze4 we4</text>
<text x="20" y="340" class="hanzi">再會</text>
<text x="20" y="398" class="tengwar"></text>
<text x="20" y="456" class="names">{tinco_ext}[e/rise][e/rise][oe/.]{vala}[e/rise][e/rise][oe/.]</text>
<text x="20" y="534" class="wu-pinyin">xia4 xia4</text>
<text x="20" y="592" class="hanzi">謝謝</text>
<text x="20" y="650" class="tengwar"></text>
<text x="20" y="708" class="names">{hwesta}+pal{anna}[a][e/rise][oe/.]{hwesta}+pal{anna}[a][e/rise][oe/.]</text>
<text x="20" y="786" class="wu-pinyin">dde4 veq5 qi3</text>
<text x="20" y="844" class="hanzi">對勿起</text>
<text x="20" y="902" class="tengwar"></text>
<text x="20" y="960" class="names">{ando}[e/rise][e/rise][oe/.]{ampa}[e/rise]{halla}[e/rise]..{calma}+pal+asp[i]_</text>
<text x="20" y="1038" class="wu-pinyin">veq5 khe4 qi3</text>
<text x="20" y="1096" class="hanzi">勿客氣</text>
<text x="20" y="1154" class="tengwar"></text>
<text x="20" y="1212" class="names">{ampa}[e/rise]{halla}[e/rise]..{calma}+asp[e/rise][oe/.]{calma}+pal+asp[i]_</text>
<text x="20" y="1290" class="wu-pinyin">zao3 an1</text>
<text x="20" y="1348" class="hanzi">早安</text>
<text x="20" y="1406" class="tengwar"></text>
<text x="20" y="1464" class="names">{tinco_ext}[a]_{telco}[a]{numen}\</text>
<text x="20" y="1542" class="wu-pinyin">nong2</text>
<text x="20" y="1600" class="hanzi">儂</text>
<text x="20" y="1658" class="tengwar"></text>
<text x="20" y="1716" class="names">{numen}[o]{noldo}\..</text>
<text x="20" y="1794" class="wu-pinyin">ngu2</text>
<text x="20" y="1852" class="hanzi">我</text>
<text x="20" y="1910" class="tengwar"></text>
<text x="20" y="1968" class="names">{noldo}[u]\..</text>
<text x="20" y="2046" class="wu-pinyin">yi2</text>
<text x="20" y="2104" class="hanzi">伊</text>
<text x="20" y="2162" class="tengwar"></text>
<text x="20" y="2220" class="names">{anna}[i]\..</text>
<text x="20" y="2298" class="wu-pinyin">zaq5 ve4 mo2</text>
<text x="20" y="2356" class="hanzi">食飯嘸</text>
<text x="20" y="2414" class="tengwar"></text>
<text x="20" y="2472" class="names">{tinco_ext}[a]{halla}[e/rise]..{ampa}[e/rise][e/rise][oe/.]{malta}[o]\..</text>
</svg>