<svg xmlns="http://www.w3.org/2000/svg" width="1000" height="3044">
<defs><style>
.wu-pinyin { font-family: sans-serif; font-size: 24px; fill: #666; }
.hanzi { font-family: "Songti SC", "Noto Serif CJK SC", serif; font-size: 33px; }
.tengwar { font-family: "Alcarin Tengwar"; font-size: 48px; }
.names { font-family: monospace; font-size: 16px; fill: #999; }
</style></defs>
<rect width="1000" height="3044" fill="white"/>
<text x="20" y="30" class="wu-pinyin">iq5</text>
<text x="20" y="88" class="hanzi">СИђ</text>
<text x="20" y="146" class="tengwar">Ьђ░ЬЂёЬђеЬЂєЬЂЃ</text>
<text x="20" y="204" class="names">{telco}[i]{halla}[e/rise]..</text>
<text x="20" y="282" class="wu-pinyin">liang3</text>
<text x="20" y="340" class="hanzi">тЁЕ</text>
<text x="20" y="398" class="tengwar">ЬђєЬђХЬЂђЬђЦЬЂљ</text>
<text x="20" y="456" class="names">{lambe}{anna}[a]{noldo}_</text>
<text x="20" y="534" class="wu-pinyin">se1</text>
<text x="20" y="592" class="hanzi">СИЅ</text>
<text x="20" y="650" class="tengwar">ЬђЃЬЂєЬЂћ</text>
<text x="20" y="708" class="names">{thule}[e/rise]\</text>
<text x="20" y="786" class="wu-pinyin">sy3</text>
<text x="20" y="844" class="hanzi">тЏЏ</text>
<text x="20" y="902" class="tengwar">ЬђЃЬЂіЬЂёЬЂљ</text>
<text x="20" y="960" class="names">{thule}[u][i]_</text>
<text x="20" y="1038" class="wu-pinyin">ng3</text>
<text x="20" y="1096" class="hanzi">С║ћ</text>
<text x="20" y="1154" class="tengwar">ЬђЦЬЂљ</text>
<text x="20" y="1212" class="names">{noldo}_</text>
<text x="20" y="1290" class="wu-pinyin">loq5</text>
<text x="20" y="1348" class="hanzi">тЁГ</text>
<text x="20" y="1406" class="tengwar">ЬђєЬЂїЬђеЬЂєЬЂЃ</text>
<text x="20" y="1464" class="names">{lambe}[o]{halla}[e/rise]..</text>
<text x="20" y="1542" class="wu-pinyin">qiq5</text>
<text x="20" y="1600" class="hanzi">СИЃ</text>
<text x="20" y="1658" class="tengwar">ЬђАЬЂФЬЂ░ЬЂёЬђеЬЂєЬЂЃ</text>
<text x="20" y="1716" class="names">{calma}+pal+asp[i]{halla}[e/rise]..</text>
<text x="20" y="1794" class="wu-pinyin">baq5</text>
<text x="20" y="1852" class="hanzi">тЁФ</text>
<text x="20" y="1910" class="tengwar">ЬђЉЬЂђЬђеЬЂєЬЂЃ</text>
<text x="20" y="1968" class="names">{parma}[a]{halla}[e/rise]..</text>
<text x="20" y="2046" class="wu-pinyin">jieu3</text>
<text x="20" y="2104" class="hanzi">С╣Ю</text>
<text x="20" y="2162" class="tengwar">ЬђАЬЂФЬђХЬЂїЬЂљ</text>
<text x="20" y="2220" class="names">{calma}+pal{anna}[o]_</text>
<text x="20" y="2298" class="wu-pinyin">zeq5</text>
<text x="20" y="2356" class="hanzi">тЇЂ</text>
<text x="20" y="2414" class="tengwar">ЬЂАЬЂєЬђеЬЂєЬЂЃ</text>
<text x="20" y="2472" class="names">{tinco_ext}[e/rise]{halla}[e/rise]..</text>
<text x="20" y="2550" class="wu-pinyin">iq5 baq3</text>
<text x="20" y="2608" class="hanzi">СИђуЎЙ</text>
<text x="20" y="2666" class="tengwar">Ьђ░ЬЂёЬђеЬЂєЬЂЃЬђЉЬЂђЬђеЬЂљ</text>
<text x="20" y="2724" class="names">{telco}[i]{halla}[e/rise]..{parma}[a]{halla}_</text>
<text x="20" y="2802" class="wu-pinyin">iq5 qi1</text>
<text x="20" y="2860" class="hanzi">СИђтЇЃ</text>
<text x="20" y="2918" class="tengwar">Ьђ░ЬЂёЬђеЬЂєЬЂЃЬђАЬЂФЬЂ░ЬЂёЬЂћ</text>
<text x="20" y="2976" class="names">{telco}[i]{halla}[e/rise]..{calma}+pal+asp[i]\</text>
</svg>