<svg xmlns="http://www.w3.org/2000/svg" width="1400" height="2540">
<defs><style>
.wu-pinyin { font-family: sans-serif; font-size: 24px; fill: #666; }
.hanzi { font-family: "Songti SC", "Noto Serif CJK SC", serif; font-size: 33px; }
.tengwar { font-family: "Alcarin Tengwar"; font-size: 48px; }
.names { font-family: monospace; font-size: 16px; fill: #999; }
</style></defs>
<rect width="1400" height="2540" fill="white"/>
<text x="20" y="30" class="wu-pinyin">zaang3 he3</text>
<text x="20" y="88" class="hanzi">дёҠжө·</text>
<text x="20" y="146" class="tengwar">оҒЎоҒҖоҖҘоҒҗоҖЈоҒҶоҒҗ</text>
<text x="20" y="204" class="names">{tinco_ext}[a]{noldo}_{hwesta}[e/rise]_</text>
<text x="20" y="282" class="wu-pinyin">bu3 dong1</text>
<text x="20" y="340" class="hanzi">жөҰжқұ</text>
<text x="20" y="398" class="tengwar">оҖ‘оҒҠоҒҗоҖҒоҒҢоҖҘоҒ”</text>
<text x="20" y="456" class="names">{parma}[u]_{tinco}[o]{noldo}\</text>
<text x="20" y="534" class="wu-pinyin">zing4 an1</text>
<text x="20" y="592" class="hanzi">йқңе®ү</text>
<text x="20" y="650" class="tengwar">оҒЎоҒ„оҖҘоҒҶоҒ…оҖ°оҒҖоҖ…оҒ”</text>
<text x="20" y="708" class="names">{tinco_ext}[i]{noldo}[e/rise][oe/.]{telco}[a]{numen}\</text>
<text x="20" y="786" class="wu-pinyin">zzy2 jia1 we4</text>
<text x="20" y="844" class="hanzi">еҫҗе®¶еҢҜ</text>
<text x="20" y="902" class="tengwar">оҒўоҒ«оҒ”оҒғоҖЎоҒ«оҖ¶оҒҖоҒ”оҖ–оҒҶоҒҶоҒ…</text>
<text x="20" y="960" class="names">{ando_ext}+pal\..{calma}+pal{anna}[a]\{vala}[e/rise][e/rise][oe/.]</text>
<text x="20" y="1038" class="wu-pinyin">hong2 keu3</text>
<text x="20" y="1096" class="hanzi">иҷ№еҸЈ</text>
<text x="20" y="1154" class="tengwar">оҖЈоҒҢоҖҘоҒ”оҒғоҖЎоҒ°оҒҢоҒҗ</text>
<text x="20" y="1212" class="names">{hwesta}[o]{noldo}\..{calma}+asp[o]_</text>
<text x="20" y="1290" class="wu-pinyin">lu2 we1</text>
<text x="20" y="1348" class="hanzi">зӣ§зҒЈ</text>
<text x="20" y="1406" class="tengwar">оҖҶоҒҠоҒ”оҒғоҖ–оҒҶоҒ”</text>
<text x="20" y="1464" class="names">{lambe}[u]\..{vala}[e/rise]\</text>
<text x="20" y="1542" class="wu-pinyin">zaq5 beq5</text>
<text x="20" y="1600" class="hanzi">й–ҳеҢ—</text>
<text x="20" y="1658" class="tengwar">оҒЎоҒҖоҖЁоҒҶоҒғоҖ‘оҒҶоҖЁоҒҶоҒғ</text>
<text x="20" y="1716" class="names">{tinco_ext}[a]{halla}[e/rise]..{parma}[e/rise]{halla}[e/rise]..</text>
<text x="20" y="1794" class="wu-pinyin">hang2 zeu1</text>
<text x="20" y="1852" class="hanzi">жқӯе·һ</text>
<text x="20" y="1910" class="tengwar">оҖЈоҒҖоҖҘоҒ”оҒғоҒЎоҒҢоҒ”</text>
<text x="20" y="1968" class="names">{hwesta}[a]{noldo}\..{tinco_ext}[o]\</text>
<text x="20" y="2046" class="wu-pinyin">su1 zeu1</text>
<text x="20" y="2104" class="hanzi">иҳҮе·һ</text>
<text x="20" y="2162" class="tengwar">оҖғоҒҠоҒ”оҒЎоҒҢоҒ”</text>
<text x="20" y="2220" class="names">{thule}[u]\{tinco_ext}[o]\</text>
<text x="20" y="2298" class="wu-pinyin">ning2 bo1</text>
<text x="20" y="2356" class="hanzi">еҜ§жіў</text>
<text x="20" y="2414" class="tengwar">оҖ…оҒ„оҖҘоҒ”оҒғоҖ‘оҒҢоҒ”</text>
<text x="20" y="2472" class="names">{numen}[i]{noldo}\..{parma}[o]\</text>
</svg>