<svg xmlns="http://www.w3.org/2000/svg" width="1400" height="4556">
<defs><style>
.wu-pinyin { font-family: sans-serif; font-size: 24px; fill: #666; }
.hanzi { font-family: "Songti SC", "Noto Serif CJK SC", serif; font-size: 33px; }
.tengwar { font-family: "Alcarin Tengwar"; font-size: 48px; }
.names { font-family: monospace; font-size: 16px; fill: #999; }
</style></defs>
<rect width="1400" height="4556" fill="white"/>
<text x="20" y="30" class="wu-pinyin">ba1</text>
<text x="20" y="88" class="hanzi">х╖┤</text>
<text x="20" y="146" class="tengwar">юАСюБАюБФ</text>
<text x="20" y="204" class="names">{parma}[a]\</text>
<text x="20" y="282" class="wu-pinyin">pa1</text>
<text x="20" y="340" class="hanzi">цАХ</text>
<text x="20" y="398" class="tengwar">юАСюБ░юБАюБФ</text>
<text x="20" y="456" class="names">{parma}+asp[a]\</text>
<text x="20" y="534" class="wu-pinyin">bba2</text>
<text x="20" y="592" class="hanzi">чИм</text>
<text x="20" y="650" class="tengwar">юАТюБАюБФюБГ</text>
<text x="20" y="708" class="names">{umbar}[a]\..</text>
<text x="20" y="786" class="wu-pinyin">da1</text>
<text x="20" y="844" class="hanzi">цРн</text>
<text x="20" y="902" class="tengwar">юАБюБАюБФ</text>
<text x="20" y="960" class="names">{tinco}[a]\</text>
<text x="20" y="1038" class="wu-pinyin">ta1</text>
<text x="20" y="1096" class="hanzi">ф╗Ц</text>
<text x="20" y="1154" class="tengwar">юАБюБ░юБАюБФ</text>
<text x="20" y="1212" class="names">{tinco}+asp[a]\</text>
<text x="20" y="1290" class="wu-pinyin">dda2</text>
<text x="20" y="1348" class="hanzi">щБФ</text>
<text x="20" y="1406" class="tengwar">юАВюБАюБФюБГ</text>
<text x="20" y="1464" class="names">{ando}[a]\..</text>
<text x="20" y="1542" class="wu-pinyin">ga1</text>
<text x="20" y="1600" class="hanzi">хШО</text>
<text x="20" y="1658" class="tengwar">юАбюБАюБФ</text>
<text x="20" y="1716" class="names">{calma}[a]\</text>
<text x="20" y="1794" class="wu-pinyin">ka1</text>
<text x="20" y="1852" class="hanzi">хНб</text>
<text x="20" y="1910" class="tengwar">юАбюБ░юБАюБФ</text>
<text x="20" y="1968" class="names">{calma}+asp[a]\</text>
<text x="20" y="2046" class="wu-pinyin">gga2</text>
<text x="20" y="2104" class="hanzi">ш╗Л</text>
<text x="20" y="2162" class="tengwar">юАвюБАюБФюБГ</text>
<text x="20" y="2220" class="names">{anga}[a]\..</text>
<text x="20" y="2298" class="wu-pinyin">za1</text>
<text x="20" y="2356" class="hanzi">ч┤о</text>
<text x="20" y="2414" class="tengwar">юБбюБАюБФ</text>
<text x="20" y="2472" class="names">{tinco_ext}[a]\</text>
<text x="20" y="2550" class="wu-pinyin">ca1</text>
<text x="20" y="2608" class="hanzi">цУж</text>
<text x="20" y="2666" class="tengwar">юБбюБ░юБАюБФ</text>
<text x="20" y="2724" class="names">{tinco_ext}+asp[a]\</text>
<text x="20" y="2802" class="wu-pinyin">zza2</text>
<text x="20" y="2860" class="hanzi">щЫЬ</text>
<text x="20" y="2918" class="tengwar">юБвюБАюБФюБГ</text>
<text x="20" y="2976" class="names">{ando_ext}[a]\..</text>
<text x="20" y="3054" class="wu-pinyin">ji1</text>
<text x="20" y="3112" class="hanzi">щЫЮ</text>
<text x="20" y="3170" class="tengwar">юАбюБлюБДюБФ</text>
<text x="20" y="3228" class="names">{calma}+pal[i]\</text>
<text x="20" y="3306" class="wu-pinyin">qi1</text>
<text x="20" y="3364" class="hanzi">цм║</text>
<text x="20" y="3422" class="tengwar">юАбюБлюБ░юБДюБФ</text>
<text x="20" y="3480" class="names">{calma}+pal+asp[i]\</text>
<text x="20" y="3558" class="wu-pinyin">jji2</text>
<text x="20" y="3616" class="hanzi">щ╜К</text>
<text x="20" y="3674" class="tengwar">юАвюБлюБДюБФюБГ</text>
<text x="20" y="3732" class="names">{anga}+pal[i]\..</text>
<text x="20" y="3810" class="wu-pinyin">va1</text>
<text x="20" y="3868" class="hanzi">шК▒</text>
<text x="20" y="3926" class="tengwar">юАФюБАюБФ</text>
<text x="20" y="3984" class="names">{ampa}[a]\</text>
<text x="20" y="4062" class="wu-pinyin">ssa3</text>
<text x="20" y="4120" class="hanzi">шйЮ</text>
<text x="20" y="4178" class="tengwar">юАДюБАюБР</text>
<text x="20" y="4236" class="names">{anto}[a]_</text>
<text x="20" y="4314" class="wu-pinyin">xxa3</text>
<text x="20" y="4372" class="hanzi">х╛Р</text>
<text x="20" y="4430" class="tengwar">юАдюБлюБАюБР</text>
<text x="20" y="4488" class="names">{unque}+pal[a]_</text>
</svg>