<svg xmlns="http://www.w3.org/2000/svg" width="1400" height="6068">
<defs><style>
.romanization { font-family: sans-serif; font-size: 24px; fill: #666; }
.hanzi { font-family: "Songti SC", "Noto Serif CJK SC", serif; font-size: 33px; }
.tengwar { font-family: "Alcarin Tengwar"; font-size: 48px; }
.names { font-family: monospace; font-size: 16px; fill: #999; }
</style></defs>
<rect width="1400" height="6068" fill="white"/>
<text x="20" y="30" class="romanization">ni3 ho3</text>
<text x="20" y="88" class="hanzi">дҪ еҘҪ</text>
<text x="20" y="146" class="tengwar">оҖҗоҒ„оҒ”оҖҠоҒҢоҒ”</text>
<text x="20" y="204" class="names">{nuumen}[i]\fall{harma}[o]\fall</text>
<text x="20" y="282" class="romanization">nga1</text>
<text x="20" y="340" class="hanzi">жҲ‘</text>
<text x="20" y="398" class="tengwar">оҖ’оҒҖоҒҮоҒ…</text>
<text x="20" y="456" class="names">{noldo}[a]/rise.mid</text>
<text x="20" y="534" class="romanization">tha1</text>
<text x="20" y="592" class="hanzi">д»–/еҘ№</text>
<text x="20" y="650" class="tengwar">оҖ„оҒҖоҒҮоҒ…</text>
<text x="20" y="708" class="names">{ando}[a]/rise.mid</text>
<text x="20" y="786" class="romanization">xie4 xie4</text>
<text x="20" y="844" class="hanzi">и°ўи°ў</text>
<text x="20" y="902" class="tengwar">оҖҠоҒғоҖ–оҒҶоҒҮоҖҠоҒғоҖ–оҒҶоҒҮ</text>
<text x="20" y="960" class="names">{harma}+pal{anna}[e]/rise{harma}+pal{anna}[e]/rise</text>
<text x="20" y="1038" class="romanization">mo5 khie4 khi4</text>
<text x="20" y="1096" class="hanzi">еҶҮе®ўж°”</text>
<text x="20" y="1154" class="tengwar">оҖ‘оҒҢоҒ”оҒғоҖҮоҖ–оҒҶоҒҮоҖҮоҒ„оҒҮ</text>
<text x="20" y="1212" class="names">{malta}[o]\fall..low{ungwe}{anna}[e]/rise{ungwe}[i]/rise</text>
<text x="20" y="1290" class="romanization">cai4 qian4</text>
<text x="20" y="1348" class="hanzi">еҶҚи§Ғ</text>
<text x="20" y="1406" class="tengwar">оҖҳоҒҖоҒҮоҖғоҒғоҖ–оҒҖоҖҗоҒҮ</text>
<text x="20" y="1464" class="names">{tinco_ext}[a]/rise{quesse}+pal{anna}[a]{nuumen}/rise</text>
<text x="20" y="1542" class="romanization">co3 san1 ho3</text>
<text x="20" y="1600" class="hanzi">ж—©дёҠеҘҪ</text>
<text x="20" y="1658" class="tengwar">оҖҳоҒҢоҒ”оҖҲоҒҖоҖҗоҒҮоҒ…оҖҠоҒҢоҒ”</text>
<text x="20" y="1716" class="names">{tinco_ext}[o]\fall{thuule}[a]{nuumen}/rise.mid{harma}[o]\fall</text>
<text x="20" y="1794" class="romanization">man3 san4 ho3</text>
<text x="20" y="1852" class="hanzi">жҷҡдёҠеҘҪ</text>
<text x="20" y="1910" class="tengwar">оҖ‘оҒҖоҖҗоҒ”оҖҲоҒҖоҖҗоҒҮоҖҠоҒҢоҒ”</text>
<text x="20" y="1968" class="names">{malta}[a]{nuumen}\fall{thuule}[a]{nuumen}/rise{harma}[o]\fall</text>
<text x="20" y="2046" class="romanization">ni3 qhi4 fan5 la3 mo5</text>
<text x="20" y="2104" class="hanzi">дҪ еҗғйҘӯдәҶеҶҮ</text>
<text x="20" y="2162" class="tengwar">оҖҗоҒ„оҒ”оҖҮоҒғоҒ„оҒҮоҖүоҒҖоҖҗоҒ”оҒғоҖўоҒҖоҒ”оҖ‘оҒҢоҒ”оҒғ</text>
<text x="20" y="2220" class="names">{nuumen}[i]\fall{ungwe}+pal[i]/rise{formen}[a]{nuumen}\fall..low{lambe}[a]\fall{malta}[o]\fall..low</text>
<text x="20" y="2298" class="romanization">ho3 qhi4</text>
<text x="20" y="2356" class="hanzi">еҘҪеҗғ</text>
<text x="20" y="2414" class="tengwar">оҖҠоҒҢоҒ”оҖҮоҒғоҒ„оҒҮ</text>
<text x="20" y="2472" class="names">{harma}[o]\fall{ungwe}+pal[i]/rise</text>
<text x="20" y="2550" class="romanization">i6</text>
<text x="20" y="2608" class="hanzi">дёҖ</text>
<text x="20" y="2666" class="tengwar">оҖ®оҒ„оҒҮоҒ‘</text>
<text x="20" y="2724" class="names">{telco}[i]/rise_bar</text>
<text x="20" y="2802" class="romanization">o5</text>
<text x="20" y="2860" class="hanzi">дәҢ</text>
<text x="20" y="2918" class="tengwar">оҖ®оҒҢоҒ”оҒғ</text>
<text x="20" y="2976" class="names">{telco}[o]\fall..low</text>
<text x="20" y="3054" class="romanization">san1</text>
<text x="20" y="3112" class="hanzi">дёү</text>
<text x="20" y="3170" class="tengwar">оҖҲоҒҖоҖҗоҒҮоҒ…</text>
<text x="20" y="3228" class="names">{thuule}[a]{nuumen}/rise.mid</text>
<text x="20" y="3306" class="romanization">si4</text>
<text x="20" y="3364" class="hanzi">еӣӣ</text>
<text x="20" y="3422" class="tengwar">оҖҲоҒ„оҒҮ</text>
<text x="20" y="3480" class="names">{thuule}[i]/rise</text>
<text x="20" y="3558" class="romanization">u3</text>
<text x="20" y="3616" class="hanzi">дә”</text>
<text x="20" y="3674" class="tengwar">оҖ®оҒҠоҒ”</text>
<text x="20" y="3732" class="names">{telco}[u]\fall</text>
<text x="20" y="3810" class="romanization">liu6</text>
<text x="20" y="3868" class="hanzi">е…ӯ</text>
<text x="20" y="3926" class="tengwar">оҖўоҖ–оҒҠоҒҮоҒ‘</text>
<text x="20" y="3984" class="names">{lambe}{anna}[u]/rise_bar</text>
<text x="20" y="4062" class="romanization">qi6</text>
<text x="20" y="4120" class="hanzi">дёғ</text>
<text x="20" y="4178" class="tengwar">оҖғоҒғоҒ„оҒҮоҒ‘</text>
<text x="20" y="4236" class="names">{quesse}+pal[i]/rise_bar</text>
<text x="20" y="4314" class="romanization">pa6</text>
<text x="20" y="4372" class="hanzi">е…«</text>
<text x="20" y="4430" class="tengwar">оҖҒоҒҖоҒҮоҒ‘</text>
<text x="20" y="4488" class="names">{parma}[a]/rise_bar</text>
<text x="20" y="4566" class="romanization">qiu3</text>
<text x="20" y="4624" class="hanzi">д№қ</text>
<text x="20" y="4682" class="tengwar">оҖғоҒғоҖ–оҒҠоҒ”</text>
<text x="20" y="4740" class="names">{quesse}+pal{anna}[u]\fall</text>
<text x="20" y="4818" class="romanization">se6</text>
<text x="20" y="4876" class="hanzi">еҚҒ</text>
<text x="20" y="4934" class="tengwar">оҖҲоҒҶоҒҮоҒ‘</text>
<text x="20" y="4992" class="names">{thuule}[e]/rise_bar</text>
<text x="20" y="5070" class="romanization">kon3</text>
<text x="20" y="5128" class="hanzi">зӢ—</text>
<text x="20" y="5186" class="tengwar">оҖғоҒҢоҒ’оҒ”</text>
<text x="20" y="5244" class="names">{quesse}[o]~\fall</text>
<text x="20" y="5322" class="romanization">sen1</text>
<text x="20" y="5380" class="hanzi">з”ҹ</text>
<text x="20" y="5438" class="tengwar">оҖҲоҒҶоҒ’оҒҮоҒ…</text>
<text x="20" y="5496" class="names">{thuule}[e]~/rise.mid</text>
<text x="20" y="5574" class="romanization">hon2</text>
<text x="20" y="5632" class="hanzi">зәў</text>
<text x="20" y="5690" class="tengwar">оҖҠоҒҢоҒ’оҒҮоҒғ</text>
<text x="20" y="5748" class="names">{harma}[o]~/rise..low</text>
<text x="20" y="5826" class="romanization">men4</text>
<text x="20" y="5884" class="hanzi">й—Ё</text>
<text x="20" y="5942" class="tengwar">оҖ‘оҒҶоҒ’оҒҮ</text>
<text x="20" y="6000" class="names">{malta}[e]~/rise</text>
</svg>