<svg xmlns="http://www.w3.org/2000/svg" width="1400" height="2540">
<defs><style>
.hakka { font-family: sans-serif; font-size: 24px; fill: #666; }
.hanzi { font-family: "Songti SC", "Noto Serif CJK SC", serif; font-size: 33px; }
.tengwar { font-family: "Alcarin Tengwar"; font-size: 48px; }
.names { font-family: monospace; font-size: 16px; fill: #999; }
</style></defs>
<rect width="1400" height="2540" fill="white"/>
<text x="20" y="30" class="hakka">ngi2 ho3</text>
<text x="20" y="88" class="hanzi">дҪ еҘҪ</text>
<text x="20" y="146" class="tengwar">оҖҘоҒ„оҒҗоҒғоҖЈоҒҲоҒ”оҒ…</text>
<text x="20" y="204" class="names">{noldo}[i]_..{harma}[o]\[ii/.]</text>
<text x="20" y="282" class="hakka">ngai1</text>
<text x="20" y="340" class="hanzi">ж¶Ҝ</text>
<text x="20" y="398" class="tengwar">оҖҘоҒҖоҒҶ</text>
<text x="20" y="456" class="names">{noldo}[a][e/rise]</text>
<text x="20" y="534" class="hakka">ngi2</text>
<text x="20" y="592" class="hanzi">дҪ </text>
<text x="20" y="650" class="tengwar">оҖҘоҒ„оҒҗоҒғ</text>
<text x="20" y="708" class="names">{noldo}[i]_..</text>
<text x="20" y="786" class="hakka">ki2</text>
<text x="20" y="844" class="hanzi">дҪў</text>
<text x="20" y="902" class="tengwar">оҖўоҒ„оҒҗоҒғ</text>
<text x="20" y="960" class="names">{ungwe}[i]_..</text>
<text x="20" y="1038" class="hakka">do1 xia4</text>
<text x="20" y="1096" class="hanzi">еӨҡи¬қ</text>
<text x="20" y="1154" class="tengwar">оҖҒоҒҲоҒҶоҖЈоҒ«оҖ§оҒҖоҒҗ</text>
<text x="20" y="1212" class="names">{tinco}[o][e/rise]{harma}+pal{anna}[a]_</text>
<text x="20" y="1290" class="hakka">mo2 se4</text>
<text x="20" y="1348" class="hanzi">жҜӢдҪҝ</text>
<text x="20" y="1406" class="tengwar">оҖ•оҒҲоҒҗоҒғоҖғоҒҶоҒҗ</text>
<text x="20" y="1464" class="names">{malta}[o]_..{thule}[e/rise]_</text>
<text x="20" y="1542" class="hakka">zoi4 gien4</text>
<text x="20" y="1600" class="hanzi">еҶҚиҰӢ</text>
<text x="20" y="1658" class="tengwar">оҖүоҒҲоҒҗоҖЎоҖ§оҒҶоҖ…оҒҗ</text>
<text x="20" y="1716" class="names">{tinco_ext}[o]_{quesse}{anna}[e/rise]{numen}_</text>
<text x="20" y="1794" class="hakka">zo3 an1</text>
<text x="20" y="1852" class="hanzi">ж—©е®ү</text>
<text x="20" y="1910" class="tengwar">оҖүоҒҲоҒ”оҒ…оҖ®оҒҖоҖ…оҒҶ</text>
<text x="20" y="1968" class="names">{tinco_ext}[o]\[ii/.]{telco}[a]{numen}[e/rise]</text>
<text x="20" y="2046" class="hakka">an1 zo3</text>
<text x="20" y="2104" class="hanzi">е®үж—©</text>
<text x="20" y="2162" class="tengwar">оҖ®оҒҖоҖ…оҒҶоҖүоҒҲоҒ”оҒ…</text>
<text x="20" y="2220" class="names">{telco}[a]{numen}[e/rise]{tinco_ext}[o]\[ii/.]</text>
<text x="20" y="2298" class="hakka">sib6 fan4 mo2</text>
<text x="20" y="2356" class="hanzi">йЈҹйЈҜжҜӢ</text>
<text x="20" y="2414" class="tengwar">оҖғоҒ„оҖ‘оҒҗоҖ“оҒҖоҖ…оҒҗоҖ•оҒҲоҒҗоҒғ</text>
<text x="20" y="2472" class="names">{thule}[i]{parma}_{formen}[a]{numen}_{malta}[o]_..</text>
</svg>