<svg xmlns="http://www.w3.org/2000/svg" width="1400" height="3296">
<defs><style>
.hakka { font-family: sans-serif; font-size: 24px; fill: #666; }
.hanzi { font-family: "Songti SC", "Noto Serif CJK SC", serif; font-size: 33px; }
.tengwar { font-family: "Alcarin Tengwar"; font-size: 48px; }
.names { font-family: monospace; font-size: 16px; fill: #999; }
</style></defs>
<rect width="1400" height="3296" fill="white"/>
<text x="20" y="30" class="hakka">id5</text>
<text x="20" y="88" class="hanzi">СИђ</text>
<text x="20" y="146" class="tengwar">Ьђ«ЬЂёЬђЂЬЂљЬЂЃ</text>
<text x="20" y="204" class="names">{telco}[i]{tinco}_..</text>
<text x="20" y="282" class="hakka">ngi4</text>
<text x="20" y="340" class="hanzi">С║ї</text>
<text x="20" y="398" class="tengwar">ЬђЦЬЂёЬЂљ</text>
<text x="20" y="456" class="names">{noldo}[i]_</text>
<text x="20" y="534" class="hakka">sam1</text>
<text x="20" y="592" class="hanzi">СИЅ</text>
<text x="20" y="650" class="tengwar">ЬђЃЬЂђЬђЋЬЂє</text>
<text x="20" y="708" class="names">{thule}[a]{malta}[e/rise]</text>
<text x="20" y="786" class="hakka">xi4</text>
<text x="20" y="844" class="hanzi">тЏЏ</text>
<text x="20" y="902" class="tengwar">ЬђБЬЂФЬЂёЬЂљ</text>
<text x="20" y="960" class="names">{harma}+pal[i]_</text>
<text x="20" y="1038" class="hakka">ng3</text>
<text x="20" y="1096" class="hanzi">С║ћ</text>
<text x="20" y="1154" class="tengwar">ЬђЦЬЂћЬЂЁ</text>
<text x="20" y="1212" class="names">{noldo}\[ii/.]</text>
<text x="20" y="1290" class="hakka">liug5</text>
<text x="20" y="1348" class="hanzi">тЁГ</text>
<text x="20" y="1406" class="tengwar">ЬђдЬђДЬЂЅЬђАЬЂљЬЂЃ</text>
<text x="20" y="1464" class="names">{lambe}{anna}[u]{quesse}_..</text>
<text x="20" y="1542" class="hakka">qid5</text>
<text x="20" y="1600" class="hanzi">СИЃ</text>
<text x="20" y="1658" class="tengwar">ЬђбЬЂФЬЂёЬђЂЬЂљЬЂЃ</text>
<text x="20" y="1716" class="names">{ungwe}+pal[i]{tinco}_..</text>
<text x="20" y="1794" class="hakka">bad5</text>
<text x="20" y="1852" class="hanzi">тЁФ</text>
<text x="20" y="1910" class="tengwar">ЬђЉЬЂђЬђЂЬЂљЬЂЃ</text>
<text x="20" y="1968" class="names">{parma}[a]{tinco}_..</text>
<text x="20" y="2046" class="hakka">giu3</text>
<text x="20" y="2104" class="hanzi">С╣Ю</text>
<text x="20" y="2162" class="tengwar">ЬђАЬђДЬЂЅЬЂћЬЂЁ</text>
<text x="20" y="2220" class="names">{quesse}{anna}[u]\[ii/.]</text>
<text x="20" y="2298" class="hakka">siib6</text>
<text x="20" y="2356" class="hanzi">тЇЂ</text>
<text x="20" y="2414" class="tengwar">ЬђЃЬЂЁЬђЉЬЂљ</text>
<text x="20" y="2472" class="names">{thule}[ii/.]{parma}_</text>
<text x="20" y="2550" class="hakka">siib6 id5</text>
<text x="20" y="2608" class="hanzi">тЇЂСИђ</text>
<text x="20" y="2666" class="tengwar">ЬђЃЬЂЁЬђЉЬЂљЬђ«ЬЂёЬђЂЬЂљЬЂЃ</text>
<text x="20" y="2724" class="names">{thule}[ii/.]{parma}_{telco}[i]{tinco}_..</text>
<text x="20" y="2802" class="hakka">ngi4 siib6</text>
<text x="20" y="2860" class="hanzi">С║їтЇЂ</text>
<text x="20" y="2918" class="tengwar">ЬђЦЬЂёЬЂљЬђЃЬЂЁЬђЉЬЂљ</text>
<text x="20" y="2976" class="names">{noldo}[i]_{thule}[ii/.]{parma}_</text>
<text x="20" y="3054" class="hakka">id5 bag5</text>
<text x="20" y="3112" class="hanzi">СИђуЎЙ</text>
<text x="20" y="3170" class="tengwar">Ьђ«ЬЂёЬђЂЬЂљЬЂЃЬђЉЬЂђЬђАЬЂљЬЂЃ</text>
<text x="20" y="3228" class="names">{telco}[i]{tinco}_..{parma}[a]{quesse}_..</text>
</svg>