<svg xmlns="http://www.w3.org/2000/svg" width="1000" height="2540">
<defs><style>
.hakka { font-family: sans-serif; font-size: 24px; fill: #666; }
.hanzi { font-family: "Songti SC", "Noto Serif CJK SC", serif; font-size: 33px; }
.tengwar { font-family: "Alcarin Tengwar"; font-size: 48px; }
.names { font-family: monospace; font-size: 16px; fill: #999; }
</style></defs>
<rect width="1000" height="2540" fill="white"/>
<text x="20" y="30" class="hakka">moi2 zu1</text>
<text x="20" y="88" class="hanzi">жў…е·ћ</text>
<text x="20" y="146" class="tengwar">оЂ•оЃ€оЃђоЃѓоЂ‰оЃ‰оЃ†</text>
<text x="20" y="204" class="names">{malta}[o]_..{tinco_ext}[u][e/rise]</text>
<text x="20" y="282" class="hakka">hoi3 liug5</text>
<text x="20" y="340" class="hanzi">жµ·й™ё</text>
<text x="20" y="398" class="tengwar">оЂЈоЃ€оЃ”оЃ…оЂ¦оЂ§оЃ‰оЂЎоЃђоЃѓ</text>
<text x="20" y="456" class="names">{hwesta}[o]\[ii/.]{lambe}{anna}[u]{calma}_..</text>
<text x="20" y="534" class="hakka">meu2 lid5</text>
<text x="20" y="592" class="hanzi">и‹—ж —</text>
<text x="20" y="650" class="tengwar">оЂ•оЃ†оЃђоЃѓоЂ¦оЃ„оЂЃоЃђоЃѓ</text>
<text x="20" y="708" class="names">{malta}[e/rise]_..{lambe}[i]{tinco}_..</text>
<text x="20" y="786" class="hakka">xin1 zug5</text>
<text x="20" y="844" class="hanzi">ж–°з«№</text>
<text x="20" y="902" class="tengwar">оЂЈоЃ«оЃ„оЂ…оЃ†оЂ‰оЃ‰оЂЎоЃђоЃѓ</text>
<text x="20" y="960" class="names">{hwesta}+pal[i]{numen}[e/rise]{tinco_ext}[u]{calma}_..</text>
<text x="20" y="1038" class="hakka">toi2 bed5</text>
<text x="20" y="1096" class="hanzi">еЏ°еЊ—</text>
<text x="20" y="1154" class="tengwar">оЂ‚оЃ€оЃђоЃѓоЂ‘оЃ†оЂЃоЃђоЃѓ</text>
<text x="20" y="1212" class="names">{ando}[o]_..{parma}[e/rise]{tinco}_..</text>
<text x="20" y="1290" class="hakka">toi2 zung1</text>
<text x="20" y="1348" class="hanzi">еЏ°дё­</text>
<text x="20" y="1406" class="tengwar">оЂ‚оЃ€оЃђоЃѓоЂ‰оЃ‰оЂҐоЃ†</text>
<text x="20" y="1464" class="names">{ando}[o]_..{tinco_ext}[u]{noldo}[e/rise]</text>
<text x="20" y="1542" class="hakka">pin2 dung1</text>
<text x="20" y="1600" class="hanzi">е±Џжќ±</text>
<text x="20" y="1658" class="tengwar">оЂ’оЃ„оЂ…оЃђоЃѓоЂЃоЃ‰оЂҐоЃ†</text>
<text x="20" y="1716" class="names">{umbar}[i]{numen}_..{tinco}[u]{noldo}[e/rise]</text>
<text x="20" y="1794" class="hakka">toi2 van2</text>
<text x="20" y="1852" class="hanzi">еЏ°зЃЈ</text>
<text x="20" y="1910" class="tengwar">оЂ‚оЃ€оЃђоЃѓоЂ”оЃЂоЂ…оЃђоЃѓ</text>
<text x="20" y="1968" class="names">{ando}[o]_..{ampa}[a]{numen}_..</text>
<text x="20" y="2046" class="hakka">gong3 dung1</text>
<text x="20" y="2104" class="hanzi">е»Јжќ±</text>
<text x="20" y="2162" class="tengwar">оЂЎоЃ€оЂҐоЃ”оЃ…оЂЃоЃ‰оЂҐоЃ†</text>
<text x="20" y="2220" class="names">{calma}[o]{noldo}\[ii/.]{tinco}[u]{noldo}[e/rise]</text>
<text x="20" y="2298" class="hakka">fug5 gien4</text>
<text x="20" y="2356" class="hanzi">з¦Џе»є</text>
<text x="20" y="2414" class="tengwar">оЂ“оЃ‰оЂЎоЃђоЃѓоЂЎоЂ§оЃ†оЂ…оЃђ</text>
<text x="20" y="2472" class="names">{formen}[u]{calma}_..{calma}{anna}[e/rise]{numen}_</text>
</svg>