<svg xmlns="http://www.w3.org/2000/svg" width="1400" height="2792">
<defs><style>
.hakka { font-family: sans-serif; font-size: 24px; fill: #666; }
.hanzi { font-family: "Songti SC", "Noto Serif CJK SC", serif; font-size: 33px; }
.tengwar { font-family: "Alcarin Tengwar"; font-size: 48px; }
.names { font-family: monospace; font-size: 16px; fill: #999; }
</style></defs>
<rect width="1400" height="2792" fill="white"/>
<text x="20" y="30" class="hakka">Romanization</text>
<text x="20" y="88" class="hanzi">Hanzi</text>
<text x="20" y="146" class="tengwar"></text>
<text x="20" y="204" class="names">{telco}</text>
<text x="20" y="282" class="hakka">moi2 zu1</text>
<text x="20" y="340" class="hanzi">梅州</text>
<text x="20" y="398" class="tengwar"></text>
<text x="20" y="456" class="names">{malta}[o]_..{tinco_ext}[u][e/rise]</text>
<text x="20" y="534" class="hakka">hoi3 liug5</text>
<text x="20" y="592" class="hanzi">海陸</text>
<text x="20" y="650" class="tengwar"></text>
<text x="20" y="708" class="names">{harma}[o]\[ii/.]{lambe}{anna}[u]{quesse}_..</text>
<text x="20" y="786" class="hakka">meu2 lid5</text>
<text x="20" y="844" class="hanzi">苗栗</text>
<text x="20" y="902" class="tengwar"></text>
<text x="20" y="960" class="names">{malta}[e/rise]_..{lambe}[i]{tinco}_..</text>
<text x="20" y="1038" class="hakka">xin1 zug5</text>
<text x="20" y="1096" class="hanzi">新竹</text>
<text x="20" y="1154" class="tengwar"></text>
<text x="20" y="1212" class="names">{harma}+pal[i]{numen}[e/rise]{tinco_ext}[u]{quesse}_..</text>
<text x="20" y="1290" class="hakka">toi2 bed5</text>
<text x="20" y="1348" class="hanzi">台北</text>
<text x="20" y="1406" class="tengwar"></text>
<text x="20" y="1464" class="names">{ando}[o]_..{parma}[e/rise]{tinco}_..</text>
<text x="20" y="1542" class="hakka">toi2 zung1</text>
<text x="20" y="1600" class="hanzi">台中</text>
<text x="20" y="1658" class="tengwar"></text>
<text x="20" y="1716" class="names">{ando}[o]_..{tinco_ext}[u]{noldo}[e/rise]</text>
<text x="20" y="1794" class="hakka">pin2 dung1</text>
<text x="20" y="1852" class="hanzi">屏東</text>
<text x="20" y="1910" class="tengwar"></text>
<text x="20" y="1968" class="names">{umbar}[i]{numen}_..{tinco}[u]{noldo}[e/rise]</text>
<text x="20" y="2046" class="hakka">toi2 van2</text>
<text x="20" y="2104" class="hanzi">台灣</text>
<text x="20" y="2162" class="tengwar"></text>
<text x="20" y="2220" class="names">{ando}[o]_..{ampa}[a]{numen}_..</text>
<text x="20" y="2298" class="hakka">gong3 dung1</text>
<text x="20" y="2356" class="hanzi">廣東</text>
<text x="20" y="2414" class="tengwar"></text>
<text x="20" y="2472" class="names">{quesse}[o]{noldo}\[ii/.]{tinco}[u]{noldo}[e/rise]</text>
<text x="20" y="2550" class="hakka">fug5 gien4</text>
<text x="20" y="2608" class="hanzi">福建</text>
<text x="20" y="2666" class="tengwar"></text>
<text x="20" y="2724" class="names">{formen}[u]{quesse}_..{quesse}{anna}[e/rise]{numen}_</text>
</svg>