<svg xmlns="http://www.w3.org/2000/svg" width="1400" height="3296">
<defs><style>
.jyutping { font-family: sans-serif; font-size: 24px; fill: #666; }
.hanzi { font-family: "Songti SC", "Noto Serif CJK SC", serif; font-size: 33px; }
.tengwar { font-family: "Alcarin Tengwar"; font-size: 48px; }
.names { font-family: monospace; font-size: 16px; fill: #999; }
</style></defs>
<rect width="1400" height="3296" fill="white"/>
<text x="20" y="30" class="jyutping">nei5 hou2</text>
<text x="20" y="88" class="hanzi">你好</text>
<text x="20" y="146" class="tengwar"></text>
<text x="20" y="204" class="names">{numen}[e/rise][e/rise]..{hwesta}[o][e/rise]</text>
<text x="20" y="282" class="jyutping">zou2 san4</text>
<text x="20" y="340" class="hanzi">早晨</text>
<text x="20" y="398" class="tengwar"></text>
<text x="20" y="456" class="names">{tinco_ext}[o][e/rise]{thule}[a/.]{numen}\..</text>
<text x="20" y="534" class="jyutping">ng5 on1</text>
<text x="20" y="592" class="hanzi">午安</text>
<text x="20" y="650" class="tengwar"></text>
<text x="20" y="708" class="names">{noldo}[e/rise]..{carrier_short}[o]{numen}_</text>
<text x="20" y="786" class="jyutping">maan5 on1</text>
<text x="20" y="844" class="hanzi">晚安</text>
<text x="20" y="902" class="tengwar"></text>
<text x="20" y="960" class="names">{malta}[aa]{numen}[e/rise]..{carrier_short}[o]{numen}_</text>
<text x="20" y="1038" class="jyutping">baai1 baai3</text>
<text x="20" y="1096" class="hanzi">拜拜</text>
<text x="20" y="1154" class="tengwar"></text>
<text x="20" y="1212" class="names">{parma}[aa]_{parma}[aa]_[a/.]</text>
<text x="20" y="1290" class="jyutping">zoi3 gin3</text>
<text x="20" y="1348" class="hanzi">再見</text>
<text x="20" y="1406" class="tengwar"></text>
<text x="20" y="1464" class="names">{tinco_ext}[o]_[a/.]{calma}[i]{numen}_[a/.]</text>
<text x="20" y="1542" class="jyutping">do1 ze6</text>
<text x="20" y="1600" class="hanzi">多謝</text>
<text x="20" y="1658" class="tengwar"></text>
<text x="20" y="1716" class="names">{tinco}[o]_{tinco_ext}[e/rise]_..</text>
<text x="20" y="1794" class="jyutping">m4 goi1</text>
<text x="20" y="1852" class="hanzi">唔該</text>
<text x="20" y="1910" class="tengwar"></text>
<text x="20" y="1968" class="names">{malta}\..{calma}[o]_</text>
<text x="20" y="2046" class="jyutping">deoi3 m4 zyu6</text>
<text x="20" y="2104" class="hanzi">對唔住</text>
<text x="20" y="2162" class="tengwar"></text>
<text x="20" y="2220" class="names">{tinco}[u][a/.]_[a/.]{malta}\..{tinco_ext}[u][i]_..</text>
<text x="20" y="2298" class="jyutping">mou5 man6 tai4</text>
<text x="20" y="2356" class="hanzi">冇問題</text>
<text x="20" y="2414" class="tengwar"></text>
<text x="20" y="2472" class="names">{malta}[o][e/rise]..{malta}[a/.]{numen}_..{ando}[a/.]\..</text>
<text x="20" y="2550" class="jyutping">gei2 hou2 aa3</text>
<text x="20" y="2608" class="hanzi">幾好呀</text>
<text x="20" y="2666" class="tengwar"></text>
<text x="20" y="2724" class="names">{calma}[e/rise][e/rise]{hwesta}[o][e/rise]{carrier_short}[aa]_[a/.]</text>
<text x="20" y="2802" class="jyutping">hou2 noi6 mou5 gin3</text>
<text x="20" y="2860" class="hanzi">好耐冇見</text>
<text x="20" y="2918" class="tengwar"></text>
<text x="20" y="2976" class="names">{hwesta}[o][e/rise]{numen}[o]_..{malta}[o][e/rise]..{calma}[i]{numen}_[a/.]</text>
<text x="20" y="3054" class="jyutping">sik6 zo2 faan6 mei6 aa3</text>
<text x="20" y="3112" class="hanzi">食咗飯未呀</text>
<text x="20" y="3170" class="tengwar"></text>
<text x="20" y="3228" class="names">{thule}[i]{calma}_..{tinco_ext}[o][e/rise]{formen}[aa]{numen}_..{malta}[e/rise]_..{carrier_short}[aa]_[a/.]</text>
</svg>