<svg xmlns="http://www.w3.org/2000/svg" width="1000" height="4052">
<defs><style>
.jyutping { font-family: sans-serif; font-size: 24px; fill: #666; }
.hanzi { font-family: "Songti SC", "Noto Serif CJK SC", serif; font-size: 33px; }
.tengwar { font-family: "Alcarin Tengwar"; font-size: 48px; }
.names { font-family: monospace; font-size: 16px; fill: #999; }
</style></defs>
<rect width="1000" height="4052" fill="white"/>
<text x="20" y="30" class="jyutping">jat1</text>
<text x="20" y="88" class="hanzi">дёЂ</text>
<text x="20" y="146" class="tengwar">оЂ§оЃ…оЂЃоЃђ</text>
<text x="20" y="204" class="names">{anna}[a/.]{tinco}_</text>
<text x="20" y="282" class="jyutping">ji6</text>
<text x="20" y="340" class="hanzi">дєЊ</text>
<text x="20" y="398" class="tengwar">оЂ§оЃ„оЃђоЃѓ</text>
<text x="20" y="456" class="names">{anna}[i]_..</text>
<text x="20" y="534" class="jyutping">saam1</text>
<text x="20" y="592" class="hanzi">дё‰</text>
<text x="20" y="650" class="tengwar">оЂѓоЃЂоЂ•оЃђ</text>
<text x="20" y="708" class="names">{thule}[aa]{malta}_</text>
<text x="20" y="786" class="jyutping">sei3</text>
<text x="20" y="844" class="hanzi">е››</text>
<text x="20" y="902" class="tengwar">оЂѓоЃ†оЃђоЃ…</text>
<text x="20" y="960" class="names">{thule}[e/rise]_[a/.]</text>
<text x="20" y="1038" class="jyutping">ng5</text>
<text x="20" y="1096" class="hanzi">дє”</text>
<text x="20" y="1154" class="tengwar">оЂҐоЃ†оЃѓ</text>
<text x="20" y="1212" class="names">{noldo}[e/rise]..</text>
<text x="20" y="1290" class="jyutping">luk6</text>
<text x="20" y="1348" class="hanzi">е…­</text>
<text x="20" y="1406" class="tengwar">оЂ¦оЃ‰оЂЎоЃђоЃѓ</text>
<text x="20" y="1464" class="names">{lambe}[u]{calma}_..</text>
<text x="20" y="1542" class="jyutping">cat1</text>
<text x="20" y="1600" class="hanzi">дёѓ</text>
<text x="20" y="1658" class="tengwar">оЂЉоЃ…оЂЃоЃђ</text>
<text x="20" y="1716" class="names">{ando_ext}[a/.]{tinco}_</text>
<text x="20" y="1794" class="jyutping">baat3</text>
<text x="20" y="1852" class="hanzi">е…«</text>
<text x="20" y="1910" class="tengwar">оЂ‘оЃЂоЂЃоЃђоЃ…</text>
<text x="20" y="1968" class="names">{parma}[aa]{tinco}_[a/.]</text>
<text x="20" y="2046" class="jyutping">gau2</text>
<text x="20" y="2104" class="hanzi">д№ќ</text>
<text x="20" y="2162" class="tengwar">оЂЎоЃ…оЃ†</text>
<text x="20" y="2220" class="names">{calma}[a/.][e/rise]</text>
<text x="20" y="2298" class="jyutping">sap6</text>
<text x="20" y="2356" class="hanzi">еЌЃ</text>
<text x="20" y="2414" class="tengwar">оЂѓоЃ…оЂ‘оЃђоЃѓ</text>
<text x="20" y="2472" class="names">{thule}[a/.]{parma}_..</text>
<text x="20" y="2550" class="jyutping">sap6 jat1</text>
<text x="20" y="2608" class="hanzi">еЌЃдёЂ</text>
<text x="20" y="2666" class="tengwar">оЂѓоЃ…оЂ‘оЃђоЃѓоЂ§оЃ…оЂЃоЃђ</text>
<text x="20" y="2724" class="names">{thule}[a/.]{parma}_..{anna}[a/.]{tinco}_</text>
<text x="20" y="2802" class="jyutping">ji6 sap6</text>
<text x="20" y="2860" class="hanzi">дєЊеЌЃ</text>
<text x="20" y="2918" class="tengwar">оЂ§оЃ„оЃђоЃѓоЂѓоЃ…оЂ‘оЃђоЃѓ</text>
<text x="20" y="2976" class="names">{anna}[i]_..{thule}[a/.]{parma}_..</text>
<text x="20" y="3054" class="jyutping">jat1 baak3</text>
<text x="20" y="3112" class="hanzi">дёЂз™ѕ</text>
<text x="20" y="3170" class="tengwar">оЂ§оЃ…оЂЃоЃђоЂ‘оЃЂоЂЎоЃђоЃ…</text>
<text x="20" y="3228" class="names">{anna}[a/.]{tinco}_{parma}[aa]{calma}_[a/.]</text>
<text x="20" y="3306" class="jyutping">jat1 cin1</text>
<text x="20" y="3364" class="hanzi">дёЂеЌѓ</text>
<text x="20" y="3422" class="tengwar">оЂ§оЃ…оЂЃоЃђоЂЉоЃ„оЂ…оЃђ</text>
<text x="20" y="3480" class="names">{anna}[a/.]{tinco}_{ando_ext}[i]{numen}_</text>
<text x="20" y="3558" class="jyutping">jat1 maan6</text>
<text x="20" y="3616" class="hanzi">дёЂиђ¬</text>
<text x="20" y="3674" class="tengwar">оЂ§оЃ…оЂЃоЃђоЂ•оЃЂоЂ…оЃђоЃѓ</text>
<text x="20" y="3732" class="names">{anna}[a/.]{tinco}_{malta}[aa]{numen}_..</text>
<text x="20" y="3810" class="jyutping">ling4</text>
<text x="20" y="3868" class="hanzi">й›¶</text>
<text x="20" y="3926" class="tengwar">оЂ¦оЃ„оЂҐоЃ”оЃѓ</text>
<text x="20" y="3984" class="names">{lambe}[i]{noldo}\..</text>
</svg>