<svg xmlns="http://www.w3.org/2000/svg" width="1400" height="5060">
<defs><style>
.jyutping { font-family: sans-serif; font-size: 24px; fill: #666; }
.hanzi { font-family: "Songti SC", "Noto Serif CJK SC", serif; font-size: 33px; }
.tengwar { font-family: "Alcarin Tengwar"; font-size: 48px; }
.names { font-family: monospace; font-size: 16px; fill: #999; }
</style></defs>
<rect width="1400" height="5060" fill="white"/>
<text x="20" y="30" class="jyutping">Romanization</text>
<text x="20" y="88" class="hanzi">Hanzi</text>
<text x="20" y="146" class="tengwar">оҖ®</text>
<text x="20" y="204" class="names">{carrier_short}</text>
<text x="20" y="282" class="jyutping">hoeng1 gong2</text>
<text x="20" y="340" class="hanzi">йҰҷжёҜ</text>
<text x="20" y="398" class="tengwar">оҖЈоҒҲоҒ„оҖҘоҒҗоҖЎоҒҲоҖҘоҒҶ</text>
<text x="20" y="456" class="names">{hwesta}[o][i]{noldo}_{calma}[o]{noldo}[e/rise]</text>
<text x="20" y="534" class="jyutping">gau2 lung4</text>
<text x="20" y="592" class="hanzi">д№қйҫҚ</text>
<text x="20" y="650" class="tengwar">оҖЎоҒ…оҒҶоҖҰоҒүоҖҘоҒ”оҒғ</text>
<text x="20" y="708" class="names">{calma}[a/.][e/rise]{lambe}[u]{noldo}\..</text>
<text x="20" y="786" class="jyutping">san1 gaai3</text>
<text x="20" y="844" class="hanzi">ж–°з•Ң</text>
<text x="20" y="902" class="tengwar">оҖғоҒ…оҖ…оҒҗоҖЎоҒҖоҒҗоҒ…</text>
<text x="20" y="960" class="names">{thule}[a/.]{numen}_{calma}[aa]_[a/.]</text>
<text x="20" y="1038" class="jyutping">zung1 waan4</text>
<text x="20" y="1096" class="hanzi">дёӯз’°</text>
<text x="20" y="1154" class="tengwar">оҖүоҒүоҖҘоҒҗоҖӯоҒҖоҖ…оҒ”оҒғ</text>
<text x="20" y="1212" class="names">{tinco_ext}[u]{noldo}_{vala}[aa]{numen}\..</text>
<text x="20" y="1290" class="jyutping">gam1 zung1</text>
<text x="20" y="1348" class="hanzi">йҮ‘йҗҳ</text>
<text x="20" y="1406" class="tengwar">оҖЎоҒ…оҖ•оҒҗоҖүоҒүоҖҘоҒҗ</text>
<text x="20" y="1464" class="names">{calma}[a/.]{malta}_{tinco_ext}[u]{noldo}_</text>
<text x="20" y="1542" class="jyutping">waan1 zai2</text>
<text x="20" y="1600" class="hanzi">зҒЈд»”</text>
<text x="20" y="1658" class="tengwar">оҖӯоҒҖоҖ…оҒҗоҖүоҒ…оҒҶ</text>
<text x="20" y="1716" class="names">{vala}[aa]{numen}_{tinco_ext}[a/.][e/rise]</text>
<text x="20" y="1794" class="jyutping">tung4 lo4 waan1</text>
<text x="20" y="1852" class="hanzi">йҠ…й‘јзҒЈ</text>
<text x="20" y="1910" class="tengwar">оҖӮоҒүоҖҘоҒ”оҒғоҖҰоҒҲоҒ”оҒғоҖӯоҒҖоҖ…оҒҗ</text>
<text x="20" y="1968" class="names">{ando}[u]{noldo}\..{lambe}[o]\..{vala}[aa]{numen}_</text>
<text x="20" y="2046" class="jyutping">zim1 saa1 zeoi2</text>
<text x="20" y="2104" class="hanzi">е°–жІҷе’Җ</text>
<text x="20" y="2162" class="tengwar">оҖүоҒ„оҖ•оҒҗоҖғоҒҖоҒҗоҖүоҒүоҒ…оҒҶ</text>
<text x="20" y="2220" class="names">{tinco_ext}[i]{malta}_{thule}[aa]_{tinco_ext}[u][a/.][e/rise]</text>
<text x="20" y="2298" class="jyutping">wong4 gok3</text>
<text x="20" y="2356" class="hanzi">ж—әи§’</text>
<text x="20" y="2414" class="tengwar">оҖӯоҒҲоҖҘоҒ”оҒғоҖЎоҒҲоҖЎоҒҗоҒ…</text>
<text x="20" y="2472" class="names">{vala}[o]{noldo}\..{calma}[o]{calma}_[a/.]</text>
<text x="20" y="2550" class="jyutping">saam1 seoi2 bou6</text>
<text x="20" y="2608" class="hanzi">ж·ұж°ҙеҹ—</text>
<text x="20" y="2666" class="tengwar">оҖғоҒҖоҖ•оҒҗоҖғоҒүоҒ…оҒҶоҖ‘оҒҲоҒҗоҒғ</text>
<text x="20" y="2724" class="names">{thule}[aa]{malta}_{thule}[u][a/.][e/rise]{parma}[o]_..</text>
<text x="20" y="2802" class="jyutping">Romanization</text>
<text x="20" y="2860" class="hanzi">Hanzi</text>
<text x="20" y="2918" class="tengwar">оҖ®</text>
<text x="20" y="2976" class="names">{carrier_short}</text>
<text x="20" y="3054" class="jyutping">gwong2 zau1</text>
<text x="20" y="3112" class="hanzi">е»Је·һ</text>
<text x="20" y="3170" class="tengwar">оҖЎоҒӘоҖӯоҒҲоҖҘоҒҶоҖүоҒ…оҒҗ</text>
<text x="20" y="3228" class="names">{calma}+w{vala}[o]{noldo}[e/rise]{tinco_ext}[a/.]_</text>
<text x="20" y="3306" class="jyutping">ou3 mun4</text>
<text x="20" y="3364" class="hanzi">жҫій–Җ</text>
<text x="20" y="3422" class="tengwar">оҖ®оҒҲоҒҗоҒ…оҖ•оҒүоҖ…оҒ”оҒғ</text>
<text x="20" y="3480" class="names">{carrier_short}[o]_[a/.]{malta}[u]{numen}\..</text>
<text x="20" y="3558" class="jyutping">san1 wui6</text>
<text x="20" y="3616" class="hanzi">ж–°жңғ</text>
<text x="20" y="3674" class="tengwar">оҖғоҒ…оҖ…оҒҗоҖӯоҒүоҒҗоҒғ</text>
<text x="20" y="3732" class="names">{thule}[a/.]{numen}_{vala}[u]_..</text>
<text x="20" y="3810" class="jyutping">toi4 saan1</text>
<text x="20" y="3868" class="hanzi">еҸ°еұұ</text>
<text x="20" y="3926" class="tengwar">оҖӮоҒҲоҒ”оҒғоҖғоҒҖоҖ…оҒҗ</text>
<text x="20" y="3984" class="names">{ando}[o]\..{thule}[aa]{numen}_</text>
<text x="20" y="4062" class="jyutping">fat6 saan1</text>
<text x="20" y="4120" class="hanzi">дҪӣеұұ</text>
<text x="20" y="4178" class="tengwar">оҖ“оҒ…оҖҒоҒҗоҒғоҖғоҒҖоҖ…оҒҗ</text>
<text x="20" y="4236" class="names">{formen}[a/.]{tinco}_..{thule}[aa]{numen}_</text>
<text x="20" y="4314" class="jyutping">zyu1 hoi2</text>
<text x="20" y="4372" class="hanzi">зҸ жө·</text>
<text x="20" y="4430" class="tengwar">оҖүоҒүоҒ„оҒҗоҖЈоҒҲоҒҶ</text>
<text x="20" y="4488" class="names">{tinco_ext}[u][i]_{hwesta}[o][e/rise]</text>
<text x="20" y="4566" class="jyutping">dung1 gun2</text>
<text x="20" y="4624" class="hanzi">жқұиҺһ</text>
<text x="20" y="4682" class="tengwar">оҖҒоҒүоҖҘоҒҗоҖЎоҒүоҖ…оҒҶ</text>
<text x="20" y="4740" class="names">{tinco}[u]{noldo}_{calma}[u]{numen}[e/rise]</text>
<text x="20" y="4818" class="jyutping">sai1 gwaan1</text>
<text x="20" y="4876" class="hanzi">иҘҝй—ң</text>
<text x="20" y="4934" class="tengwar">оҖғоҒ…оҒҗоҖЎоҒӘоҖӯоҒҖоҖ…оҒҗ</text>
<text x="20" y="4992" class="names">{thule}[a/.]_{calma}+w{vala}[aa]{numen}_</text>
</svg>