<svg xmlns="http://www.w3.org/2000/svg" width="1400" height="7832">
<defs><style>
.jyutping { font-family: sans-serif; font-size: 24px; fill: #666; }
.hanzi { font-family: "Songti SC", "Noto Serif CJK SC", serif; font-size: 33px; }
.tengwar { font-family: "Alcarin Tengwar"; font-size: 48px; }
.names { font-family: monospace; font-size: 16px; fill: #999; }
</style></defs>
<rect width="1400" height="7832" fill="white"/>
<text x="20" y="30" class="jyutping">Romanization</text>
<text x="20" y="88" class="hanzi">Hanzi</text>
<text x="20" y="146" class="tengwar">ΌΑχ</text>
<text x="20" y="204" class="names">{carrier_short}</text>
<text x="20" y="282" class="jyutping">si1</text>
<text x="20" y="340" class="hanzi">ϋσσ</text>
<text x="20" y="398" class="tengwar">ΌΑΔΌΒΕΌΒΡ</text>
<text x="20" y="456" class="names">{thule}[i]_</text>
<text x="20" y="534" class="jyutping">si2</text>
<text x="20" y="592" class="hanzi">ίΠ▓</text>
<text x="20" y="650" class="tengwar">ΌΑΔΌΒΕΌΒΗ</text>
<text x="20" y="708" class="names">{thule}[i][e/rise]</text>
<text x="20" y="786" class="jyutping">si3</text>
<text x="20" y="844" class="hanzi">ϋσο</text>
<text x="20" y="902" class="tengwar">ΌΑΔΌΒΕΌΒΡΌΒΖ</text>
<text x="20" y="960" class="names">{thule}[i]_[a/.]</text>
<text x="20" y="1038" class="jyutping">si4</text>
<text x="20" y="1096" class="hanzi">όβΓ</text>
<text x="20" y="1154" class="tengwar">ΌΑΔΌΒΕΌΒΦΌΒΔ</text>
<text x="20" y="1212" class="names">{thule}[i]\..</text>
<text x="20" y="1290" class="jyutping">si5</text>
<text x="20" y="1348" class="hanzi">ί╕Γ</text>
<text x="20" y="1406" class="tengwar">ΌΑΔΌΒΕΌΒΗΌΒΔ</text>
<text x="20" y="1464" class="names">{thule}[i][e/rise]..</text>
<text x="20" y="1542" class="jyutping">si6</text>
<text x="20" y="1600" class="hanzi">ϊ║Μ</text>
<text x="20" y="1658" class="tengwar">ΌΑΔΌΒΕΌΒΡΌΒΔ</text>
<text x="20" y="1716" class="names">{thule}[i]_..</text>
<text x="20" y="1794" class="jyutping">Tone</text>
<text x="20" y="1852" class="hanzi">Contour</text>
<text x="20" y="1910" class="tengwar">ΌΑΓΌΒΙ</text>
<text x="20" y="1968" class="names">{ando}[o]</text>
<text x="20" y="2046" class="jyutping">1 (high level)</text>
<text x="20" y="2104" class="hanzi">flat bar</text>
<text x="20" y="2162" class="tengwar">ΌΑμΌΒΕΌΑοΌΒΗ</text>
<text x="20" y="2220" class="names">{hwesta}[i]{lambe}[e/rise]</text>
<text x="20" y="2298" class="jyutping">2 (high rising)</text>
<text x="20" y="2356" class="hanzi">rising</text>
<text x="20" y="2414" class="tengwar">ΌΑμΌΒΕΌΑχ</text>
<text x="20" y="2472" class="names">{hwesta}[i]{carrier_short}</text>
<text x="20" y="2550" class="jyutping">3 (mid level)</text>
<text x="20" y="2608" class="hanzi">flat bar</text>
<text x="20" y="2666" class="tengwar">ΌΑΧΌΒΕΌΑοΌΒΗ</text>
<text x="20" y="2724" class="names">{malta}[i]{lambe}[e/rise]</text>
<text x="20" y="2802" class="jyutping">4 (low falling)</text>
<text x="20" y="2860" class="hanzi">falling</text>
<text x="20" y="2918" class="tengwar">ΌΑοΌΒΙΌΑΥΌΒΖ</text>
<text x="20" y="2976" class="names">{lambe}[o]{formen}[a/.]</text>
<text x="20" y="3054" class="jyutping">5 (low rising)</text>
<text x="20" y="3112" class="hanzi">rising</text>
<text x="20" y="3170" class="tengwar">ΌΑοΌΒΙΌΑχ</text>
<text x="20" y="3228" class="names">{lambe}[o]{carrier_short}</text>
<text x="20" y="3306" class="jyutping">6 (low level)</text>
<text x="20" y="3364" class="hanzi">flat bar</text>
<text x="20" y="3422" class="tengwar">ΌΑοΌΒΙΌΑοΌΒΗ</text>
<text x="20" y="3480" class="names">{lambe}[o]{lambe}[e/rise]</text>
<text x="20" y="3558" class="jyutping">Romanization</text>
<text x="20" y="3616" class="hanzi">Hanzi</text>
<text x="20" y="3674" class="tengwar">ΌΑχ</text>
<text x="20" y="3732" class="names">{carrier_short}</text>
<text x="20" y="3810" class="jyutping">fan1</text>
<text x="20" y="3868" class="hanzi">ίΙΗ</text>
<text x="20" y="3926" class="tengwar">ΌΑΥΌΒΖΌΑΖΌΒΡ</text>
<text x="20" y="3984" class="names">{formen}[a/.]{numen}_</text>
<text x="20" y="4062" class="jyutping">fan2</text>
<text x="20" y="4120" class="hanzi">ύ▓Κ</text>
<text x="20" y="4178" class="tengwar">ΌΑΥΌΒΖΌΑΖΌΒΗ</text>
<text x="20" y="4236" class="names">{formen}[a/.]{numen}[e/rise]</text>
<text x="20" y="4314" class="jyutping">fan3</text>
<text x="20" y="4372" class="hanzi">ϋρΥ</text>
<text x="20" y="4430" class="tengwar">ΌΑΥΌΒΖΌΑΖΌΒΡΌΒΖ</text>
<text x="20" y="4488" class="names">{formen}[a/.]{numen}_[a/.]</text>
<text x="20" y="4566" class="jyutping">fan4</text>
<text x="20" y="4624" class="hanzi">ύΕγ</text>
<text x="20" y="4682" class="tengwar">ΌΑΥΌΒΖΌΑΖΌΒΦΌΒΔ</text>
<text x="20" y="4740" class="names">{formen}[a/.]{numen}\..</text>
<text x="20" y="4818" class="jyutping">fan5</text>
<text x="20" y="4876" class="hanzi">όΗν</text>
<text x="20" y="4934" class="tengwar">ΌΑΥΌΒΖΌΑΖΌΒΗΌΒΔ</text>
<text x="20" y="4992" class="names">{formen}[a/.]{numen}[e/rise]..</text>
<text x="20" y="5070" class="jyutping">fan6</text>
<text x="20" y="5128" class="hanzi">ϊ╗╜</text>
<text x="20" y="5186" class="tengwar">ΌΑΥΌΒΖΌΑΖΌΒΡΌΒΔ</text>
<text x="20" y="5244" class="names">{formen}[a/.]{numen}_..</text>
<text x="20" y="5322" class="jyutping">Romanization</text>
<text x="20" y="5380" class="hanzi">Hanzi</text>
<text x="20" y="5438" class="tengwar">ΌΑχ</text>
<text x="20" y="5496" class="names">{carrier_short}</text>
<text x="20" y="5574" class="jyutping">sik1</text>
<text x="20" y="5632" class="hanzi">ϋΚ▓</text>
<text x="20" y="5690" class="tengwar">ΌΑΔΌΒΕΌΑκΌΒΡ</text>
<text x="20" y="5748" class="names">{thule}[i]{calma}_</text>
<text x="20" y="5826" class="jyutping">sik3</text>
<text x="20" y="5884" class="hanzi">ϋφα</text>
<text x="20" y="5942" class="tengwar">ΌΑΔΌΒΕΌΑκΌΒΡΌΒΖ</text>
<text x="20" y="6000" class="names">{thule}[i]{calma}_[a/.]</text>
<text x="20" y="6078" class="jyutping">sik6</text>
<text x="20" y="6136" class="hanzi">ώμθ</text>
<text x="20" y="6194" class="tengwar">ΌΑΔΌΒΕΌΑκΌΒΡΌΒΔ</text>
<text x="20" y="6252" class="names">{thule}[i]{calma}_..</text>
<text x="20" y="6330" class="jyutping">Romanization</text>
<text x="20" y="6388" class="hanzi">Hanzi</text>
<text x="20" y="6446" class="tengwar">ΌΑχ</text>
<text x="20" y="6504" class="names">{carrier_short}</text>
<text x="20" y="6582" class="jyutping">maai5</text>
<text x="20" y="6640" class="hanzi">ϋ▓╖</text>
<text x="20" y="6698" class="tengwar">ΌΑΧΌΒΑΌΒΗΌΒΔ</text>
<text x="20" y="6756" class="names">{malta}[aa][e/rise]..</text>
<text x="20" y="6834" class="jyutping">maai6</text>
<text x="20" y="6892" class="hanzi">ϋ│μ</text>
<text x="20" y="6950" class="tengwar">ΌΑΧΌΒΑΌΒΡΌΒΔ</text>
<text x="20" y="7008" class="names">{malta}[aa]_..</text>
<text x="20" y="7086" class="jyutping">gam1</text>
<text x="20" y="7144" class="hanzi">ώΘΣ</text>
<text x="20" y="7202" class="tengwar">ΌΑκΌΒΖΌΑΧΌΒΡ</text>
<text x="20" y="7260" class="names">{calma}[a/.]{malta}_</text>
<text x="20" y="7338" class="jyutping">gam2</text>
<text x="20" y="7396" class="hanzi">ίΤΒ</text>
<text x="20" y="7454" class="tengwar">ΌΑκΌΒΖΌΑΧΌΒΗ</text>
<text x="20" y="7512" class="names">{calma}[a/.]{malta}[e/rise]</text>
<text x="20" y="7590" class="jyutping">gam3</text>
<text x="20" y="7648" class="hanzi">ύοΒ</text>
<text x="20" y="7706" class="tengwar">ΌΑκΌΒΖΌΑΧΌΒΡΌΒΖ</text>
<text x="20" y="7764" class="names">{calma}[a/.]{malta}_[a/.]</text>
</svg>