<svg xmlns="http://www.w3.org/2000/svg" width="1000" height="2540">
<defs><style>
.pinyin { font-family: sans-serif; font-size: 24px; fill: #666; }
.hanzi { font-family: "Songti SC", "Noto Serif CJK SC", serif; font-size: 33px; }
.tengwar { font-family: "Alcarin Tengwar"; font-size: 48px; }
.names { font-family: monospace; font-size: 16px; fill: #999; }
</style></defs>
<rect width="1000" height="2540" fill="white"/>
<text x="20" y="30" class="pinyin">yƒЂ</text>
<text x="20" y="88" class="hanzi">дЄА</text>
<text x="20" y="146" class="tengwar">оА£оБДоБС</text>
<text x="20" y="204" class="names">{anna}[i]¬є</text>
<text x="20" y="282" class="pinyin">√®r</text>
<text x="20" y="340" class="hanzi">дЇМ</text>
<text x="20" y="398" class="tengwar">оАЃоБЖоА°оВЧ</text>
<text x="20" y="456" class="names">{carrier_short}[e]{oore}вБі</text>
<text x="20" y="534" class="pinyin">sƒБn</text>
<text x="20" y="592" class="hanzi">дЄЙ</text>
<text x="20" y="650" class="tengwar">оАИоБАоАРоБС</text>
<text x="20" y="708" class="names">{thuule}[a]{nuumen}¬є</text>
<text x="20" y="786" class="pinyin">s√ђ</text>
<text x="20" y="844" class="hanzi">еЫЫ</text>
<text x="20" y="902" class="tengwar">оАИоБДоВЧ</text>
<text x="20" y="960" class="names">{thuule}[i]вБі</text>
<text x="20" y="1038" class="pinyin">w«Ф</text>
<text x="20" y="1096" class="hanzi">дЇФ</text>
<text x="20" y="1154" class="tengwar">оА•оБМоВЦ</text>
<text x="20" y="1212" class="names">{vala}[u]¬≥</text>
<text x="20" y="1290" class="pinyin">li√є</text>
<text x="20" y="1348" class="hanzi">еЕ≠</text>
<text x="20" y="1406" class="tengwar">оАҐоБДоВЧ</text>
<text x="20" y="1464" class="names">{lambe}[i]вБі</text>
<text x="20" y="1542" class="pinyin">qƒЂ</text>
<text x="20" y="1600" class="hanzi">дЄГ</text>
<text x="20" y="1658" class="tengwar">оАЖоБГоБДоБС</text>
<text x="20" y="1716" class="names">{anga}{+pal}[i]¬є</text>
<text x="20" y="1794" class="pinyin">bƒБ</text>
<text x="20" y="1852" class="hanzi">еЕЂ</text>
<text x="20" y="1910" class="tengwar">оАБоБАоБС</text>
<text x="20" y="1968" class="names">{parma}[a]¬є</text>
<text x="20" y="2046" class="pinyin">ji«Ф</text>
<text x="20" y="2104" class="hanzi">дєЭ</text>
<text x="20" y="2162" class="tengwar">оАВоБГоБДоВЦ</text>
<text x="20" y="2220" class="names">{calma}{+pal}[i]¬≥</text>
<text x="20" y="2298" class="pinyin">sh√≠</text>
<text x="20" y="2356" class="hanzi">еНБ</text>
<text x="20" y="2414" class="tengwar">оАКоБДоБЗ</text>
<text x="20" y="2472" class="names">{harma}[i]¬≤</text>
</svg>