<svg xmlns="http://www.w3.org/2000/svg" width="1400" height="2288">
<defs><style>
.pinyin { font-family: sans-serif; font-size: 24px; fill: #666; }
.hanzi { font-family: "Songti SC", "Noto Serif CJK SC", serif; font-size: 33px; }
.tengwar { font-family: "Alcarin Tengwar"; font-size: 48px; }
.names { font-family: monospace; font-size: 16px; fill: #999; }
</style></defs>
<rect width="1400" height="2288" fill="white"/>
<text x="20" y="30" class="pinyin">bД›i jД«ng</text>
<text x="20" y="88" class="hanzi">еЊ—дє¬</text>
<text x="20" y="146" class="tengwar">оЂЃоЃ†о‚–оЂѓоЃѓоЃ„оЂ’оЃ‘</text>
<text x="20" y="204" class="names">{parma}[e]Ві{quesse}{+pal}[i]{noldo}В№</text>
<text x="20" y="282" class="pinyin">shГ ng hЗЋi</text>
<text x="20" y="340" class="hanzi">дёЉжµ·</text>
<text x="20" y="398" class="tengwar">оЂ‹оЃЂоЂ’о‚—оЂЉоЃЂо‚–</text>
<text x="20" y="456" class="names">{hwesta}[a]{noldo}вЃґ{harma}[a]Ві</text>
<text x="20" y="534" class="pinyin">guЗЋng zhЕЌu</text>
<text x="20" y="592" class="hanzi">е№їе·ћ</text>
<text x="20" y="650" class="tengwar">оЂѓоЂҐоЃЂоЂ’о‚–оЂ‚оЃЉоЃ‘</text>
<text x="20" y="708" class="names">{quesse}{vala}[a]{noldo}Ві{calma}[o]В№</text>
<text x="20" y="786" class="pinyin">xД« ДЃn</text>
<text x="20" y="844" class="hanzi">иҐїе®‰</text>
<text x="20" y="902" class="tengwar">оЂЉоЃѓоЃ„оЃ‘оЂ®оЃЂоЂђоЃ‘</text>
<text x="20" y="960" class="names">{harma}{+pal}[i]В№{carrier_short}[a]{nuumen}В№</text>
<text x="20" y="1038" class="pinyin">chГ©ng dЕ«</text>
<text x="20" y="1096" class="hanzi">ж€ђйѓЅ</text>
<text x="20" y="1154" class="tengwar">оЂ†оЃ†оЂ’оЃ‡оЂЂоЃЊоЃ‘</text>
<text x="20" y="1212" class="names">{anga}[e]{noldo}ВІ{tinco}[u]В№</text>
<text x="20" y="1290" class="pinyin">chГЎng jiДЃng</text>
<text x="20" y="1348" class="hanzi">й•їж±џ</text>
<text x="20" y="1406" class="tengwar">оЂ†оЃЂоЂ’оЃ‡оЂѓоЃѓоЂЈоЃЂоЂ’оЃ‘</text>
<text x="20" y="1464" class="names">{anga}[a]{noldo}ВІ{quesse}{+pal}{anna}[a]{noldo}В№</text>
<text x="20" y="1542" class="pinyin">huГЎng hГ©</text>
<text x="20" y="1600" class="hanzi">й»„жІі</text>
<text x="20" y="1658" class="tengwar">оЂЉоЂҐоЃЂоЂ’оЃ‡оЂЉоЃ†оЃ‡</text>
<text x="20" y="1716" class="names">{harma}{vala}[a]{noldo}ВІ{harma}[e]ВІ</text>
<text x="20" y="1794" class="pinyin">tГ i shДЃn</text>
<text x="20" y="1852" class="hanzi">жі°е±±</text>
<text x="20" y="1910" class="tengwar">оЂ„оЃЂо‚—оЂ‹оЃЂоЂђоЃ‘</text>
<text x="20" y="1968" class="names">{ando}[a]вЃґ{hwesta}[a]{nuumen}В№</text>
<text x="20" y="2046" class="pinyin">zhЕЌng guГі</text>
<text x="20" y="2104" class="hanzi">дё­е›Ѕ</text>
<text x="20" y="2162" class="tengwar">оЂ‚оЃЉоЂ’оЃ‘оЂѓоЂҐоЃЉоЃ‡</text>
<text x="20" y="2220" class="names">{calma}[o]{noldo}В№{quesse}{vala}[o]ВІ</text>
</svg>