<svg xmlns="http://www.w3.org/2000/svg" width="1000" height="2288">
<defs><style>
.pinyin { font-family: sans-serif; font-size: 24px; fill: #666; }
.hanzi { font-family: "Songti SC", "Noto Serif CJK SC", serif; font-size: 33px; }
.tengwar { font-family: "Alcarin Tengwar"; font-size: 48px; }
.names { font-family: monospace; font-size: 16px; fill: #999; }
</style></defs>
<rect width="1000" height="2288" fill="white"/>
<text x="20" y="30" class="pinyin">bД›i jД«ng</text>
<text x="20" y="88" class="hanzi">еЊ—дє¬</text>
<text x="20" y="146" class="tengwar">оЂЃоЃ†о‚–оЂ‚оЃѓоЃ„оЂ’оЃ‘</text>
<text x="20" y="204" class="names">{parma}[e]Ві{calma}{+pal}[i]{noldo}В№</text>
<text x="20" y="282" class="pinyin">shГ ng hЗЋi</text>
<text x="20" y="340" class="hanzi">дёЉжµ·</text>
<text x="20" y="398" class="tengwar">оЂЉоЃЂоЂ’о‚—оЂ‹оЃЂо‚–</text>
<text x="20" y="456" class="names">{harma}[a]{noldo}вЃґ{hwesta}[a]Ві</text>
<text x="20" y="534" class="pinyin">guЗЋng zhЕЌu</text>
<text x="20" y="592" class="hanzi">е№їе·ћ</text>
<text x="20" y="650" class="tengwar">оЂ‚оЂҐоЃЂоЂ’о‚–оЂѓоЃЉоЃ‘</text>
<text x="20" y="708" class="names">{calma}{vala}[a]{noldo}Ві{quesse}[o]В№</text>
<text x="20" y="786" class="pinyin">xД« ДЃn</text>
<text x="20" y="844" class="hanzi">иҐїе®‰</text>
<text x="20" y="902" class="tengwar">оЂ‹оЃѓоЃ„оЃ‘оЂ®оЃЂоЂђоЃ‘</text>
<text x="20" y="960" class="names">{hwesta}{+pal}[i]В№{carrier_short}[a]{nuumen}В№</text>
<text x="20" y="1038" class="pinyin">chГ©ng dЕ«</text>
<text x="20" y="1096" class="hanzi">ж€ђйѓЅ</text>
<text x="20" y="1154" class="tengwar">оЂ‡оЃ†оЂ’оЃ‡оЂЂоЃЊоЃ‘</text>
<text x="20" y="1212" class="names">{ungwe}[e]{noldo}ВІ{tinco}[u]В№</text>
<text x="20" y="1290" class="pinyin">chГЎng jiДЃng</text>
<text x="20" y="1348" class="hanzi">й•їж±џ</text>
<text x="20" y="1406" class="tengwar">оЂ‡оЃЂоЂ’оЃ‡оЂ‚оЃѓоЂЈоЃЂоЂ’оЃ‘</text>
<text x="20" y="1464" class="names">{ungwe}[a]{noldo}ВІ{calma}{+pal}{anna}[a]{noldo}В№</text>
<text x="20" y="1542" class="pinyin">huГЎng hГ©</text>
<text x="20" y="1600" class="hanzi">й»„жІі</text>
<text x="20" y="1658" class="tengwar">оЂ‹оЂҐоЃЂоЂ’оЃ‡оЂ‹оЃ†оЃ‡</text>
<text x="20" y="1716" class="names">{hwesta}{vala}[a]{noldo}ВІ{hwesta}[e]ВІ</text>
<text x="20" y="1794" class="pinyin">tГ i shДЃn</text>
<text x="20" y="1852" class="hanzi">жі°е±±</text>
<text x="20" y="1910" class="tengwar">оЂ„оЃЂо‚—оЂЉоЃЂоЂђоЃ‘</text>
<text x="20" y="1968" class="names">{ando}[a]вЃґ{harma}[a]{nuumen}В№</text>
<text x="20" y="2046" class="pinyin">zhЕЌng guГі</text>
<text x="20" y="2104" class="hanzi">дё­е›Ѕ</text>
<text x="20" y="2162" class="tengwar">оЂѓоЃЉоЂ’оЃ‘оЂ‚оЂҐоЃЉоЃ‡</text>
<text x="20" y="2220" class="names">{quesse}[o]{noldo}В№{calma}{vala}[o]ВІ</text>
</svg>