<svg xmlns="http://www.w3.org/2000/svg" width="1000" height="7328">
<defs><style>
.gan { font-family: sans-serif; font-size: 24px; fill: #666; }
.hanzi { font-family: "Songti SC", "Noto Serif CJK SC", serif; font-size: 33px; }
.tengwar { font-family: "Alcarin Tengwar"; font-size: 48px; }
.names { font-family: monospace; font-size: 16px; fill: #999; }
</style></defs>
<rect width="1000" height="7328" fill="white"/>
<text x="20" y="30" class="gan">ni3 hau3</text>
<text x="20" y="88" class="hanzi">дҪ еҘҪ</text>
<text x="20" y="146" class="tengwar">оҖ…оҒ„оҒ•оҖЈоҒҖоҒ•</text>
<text x="20" y="204" class="names">{numen}[i]v{hwesta}[a]v</text>
<text x="20" y="282" class="gan">ngo3</text>
<text x="20" y="340" class="hanzi">жҲ‘</text>
<text x="20" y="398" class="tengwar">оҖҘоҒҲоҒ•</text>
<text x="20" y="456" class="names">{noldo}[o]v</text>
<text x="20" y="534" class="gan">ni3</text>
<text x="20" y="592" class="hanzi">дҪ </text>
<text x="20" y="650" class="tengwar">оҖ…оҒ„оҒ•</text>
<text x="20" y="708" class="names">{numen}[i]v</text>
<text x="20" y="786" class="gan">ki2</text>
<text x="20" y="844" class="hanzi">дҪў</text>
<text x="20" y="902" class="tengwar">оҖўоҒ„оҒҶоҒғ</text>
<text x="20" y="960" class="names">{anga}[i]/..</text>
<text x="20" y="1038" class="gan">do1 xia4</text>
<text x="20" y="1096" class="hanzi">еӨҡи¬қ</text>
<text x="20" y="1154" class="tengwar">оҖҒоҒҲоҒ”оҖЈоҒ«оҖ§оҒҖоҒҶ</text>
<text x="20" y="1212" class="names">{tinco}[o]\{hwesta}+pal{anna}[a]/</text>
<text x="20" y="1290" class="gan">m2 sii3</text>
<text x="20" y="1348" class="hanzi">е””дҪҝ</text>
<text x="20" y="1406" class="tengwar">оҖ•оҒҶоҒғоҖғоҒ…оҒ•</text>
<text x="20" y="1464" class="names">{malta}/..{thule}[ii/.]v</text>
<text x="20" y="1542" class="gan">zai4 gien4</text>
<text x="20" y="1600" class="hanzi">еҶҚиҰӢ</text>
<text x="20" y="1658" class="tengwar">оҖүоҒҖоҒҶоҖЎоҖ§оҒҶоҖ…оҒҶ</text>
<text x="20" y="1716" class="names">{tinco_ext}[a]/{calma}{anna}/{numen}/</text>
<text x="20" y="1794" class="gan">zau3 sen2</text>
<text x="20" y="1852" class="hanzi">ж—©жҷЁ</text>
<text x="20" y="1910" class="tengwar">оҖүоҒҖоҒ•оҖғоҒҶоҖ…оҒҶоҒғ</text>
<text x="20" y="1968" class="names">{tinco_ext}[a]v{thule}/{numen}/..</text>
<text x="20" y="2046" class="gan">set7 fan4 mau2</text>
<text x="20" y="2104" class="hanzi">йЈҹйЈҜеҶҮ</text>
<text x="20" y="2162" class="tengwar">оҖғоҒҶоҖҒоҒ”оҒғоҖ“оҒҖоҖ…оҒҶоҖ•оҒҖоҒҶоҒғ</text>
<text x="20" y="2220" class="names">{thule}/{tinco}\..{formen}[a]{numen}/{malta}[a]/..</text>
<text x="20" y="2298" class="gan">it6</text>
<text x="20" y="2356" class="hanzi">дёҖ</text>
<text x="20" y="2414" class="tengwar">оҖҜоҒ„оҖҒоҒҗ</text>
<text x="20" y="2472" class="names">{telco}[i]{tinco}_</text>
<text x="20" y="2550" class="gan">ngi4</text>
<text x="20" y="2608" class="hanzi">дәҢ</text>
<text x="20" y="2666" class="tengwar">оҖҘоҒ„оҒҶ</text>
<text x="20" y="2724" class="names">{noldo}[i]/</text>
<text x="20" y="2802" class="gan">san1</text>
<text x="20" y="2860" class="hanzi">дёү</text>
<text x="20" y="2918" class="tengwar">оҖғоҒҖоҖ…оҒ”</text>
<text x="20" y="2976" class="names">{thule}[a]{numen}\</text>
<text x="20" y="3054" class="gan">sii3</text>
<text x="20" y="3112" class="hanzi">еӣӣ</text>
<text x="20" y="3170" class="tengwar">оҖғоҒ…оҒ•</text>
<text x="20" y="3228" class="names">{thule}[ii/.]v</text>
<text x="20" y="3306" class="gan">ng3</text>
<text x="20" y="3364" class="hanzi">дә”</text>
<text x="20" y="3422" class="tengwar">оҖҘоҒ•</text>
<text x="20" y="3480" class="names">{noldo}v</text>
<text x="20" y="3558" class="gan">luk7</text>
<text x="20" y="3616" class="hanzi">е…ӯ</text>
<text x="20" y="3674" class="tengwar">оҖҰоҒүоҖЎоҒ”оҒғ</text>
<text x="20" y="3732" class="names">{lambe}[u]{calma}\..</text>
<text x="20" y="3810" class="gan">qit6</text>
<text x="20" y="3868" class="hanzi">дёғ</text>
<text x="20" y="3926" class="tengwar">оҖўоҒ«оҒ„оҖҒоҒҗ</text>
<text x="20" y="3984" class="names">{anga}+pal[i]{tinco}_</text>
<text x="20" y="4062" class="gan">bat6</text>
<text x="20" y="4120" class="hanzi">е…«</text>
<text x="20" y="4178" class="tengwar">оҖ‘оҒҖоҖҒоҒҗ</text>
<text x="20" y="4236" class="names">{parma}[a]{tinco}_</text>
<text x="20" y="4314" class="gan">giu3</text>
<text x="20" y="4372" class="hanzi">д№қ</text>
<text x="20" y="4430" class="tengwar">оҖЎоҖ§оҒүоҒ•</text>
<text x="20" y="4488" class="names">{calma}{anna}[u]v</text>
<text x="20" y="4566" class="gan">set7</text>
<text x="20" y="4624" class="hanzi">еҚҒ</text>
<text x="20" y="4682" class="tengwar">оҖғоҒҶоҖҒоҒ”оҒғ</text>
<text x="20" y="4740" class="names">{thule}/{tinco}\..</text>
<text x="20" y="4818" class="gan">hai4</text>
<text x="20" y="4876" class="hanzi">дҝӮ</text>
<text x="20" y="4934" class="tengwar">оҖЈоҒҖоҒҶ</text>
<text x="20" y="4992" class="names">{hwesta}[a]/</text>
<text x="20" y="5070" class="gan">m2 hai4</text>
<text x="20" y="5128" class="hanzi">е””дҝӮ</text>
<text x="20" y="5186" class="tengwar">оҖ•оҒҶоҒғоҖЈоҒҖоҒҶ</text>
<text x="20" y="5244" class="names">{malta}/..{hwesta}[a]/</text>
<text x="20" y="5322" class="gan">hau3</text>
<text x="20" y="5380" class="hanzi">еҘҪ</text>
<text x="20" y="5438" class="tengwar">оҖЈоҒҖоҒ•</text>
<text x="20" y="5496" class="names">{hwesta}[a]v</text>
<text x="20" y="5574" class="gan">m2 hau3</text>
<text x="20" y="5632" class="hanzi">е””еҘҪ</text>
<text x="20" y="5690" class="tengwar">оҖ•оҒҶоҒғоҖЈоҒҖоҒ•</text>
<text x="20" y="5748" class="names">{malta}/..{hwesta}[a]v</text>
<text x="20" y="5826" class="gan">xiau3 det6</text>
<text x="20" y="5884" class="hanzi">жӣүеҫ—</text>
<text x="20" y="5942" class="tengwar">оҖЈоҒ«оҖ§оҒҖоҒ•оҖҒоҒҶоҖҒоҒҗ</text>
<text x="20" y="6000" class="names">{hwesta}+pal{anna}[a]v{tinco}/{tinco}_</text>
<text x="20" y="6078" class="gan">m2 xiau3 det6</text>
<text x="20" y="6136" class="hanzi">е””жӣүеҫ—</text>
<text x="20" y="6194" class="tengwar">оҖ•оҒҶоҒғоҖЈоҒ«оҖ§оҒҖоҒ•оҖҒоҒҶоҖҒоҒҗ</text>
<text x="20" y="6252" class="names">{malta}/..{hwesta}+pal{anna}[a]v{tinco}/{tinco}_</text>
<text x="20" y="6330" class="gan">gi3 do1 qien2</text>
<text x="20" y="6388" class="hanzi">е№ҫеӨҡйҢў</text>
<text x="20" y="6446" class="tengwar">оҖЎоҒ„оҒ•оҖҒоҒҲоҒ”оҖўоҒ«оҖ§оҒҶоҖ…оҒҶоҒғ</text>
<text x="20" y="6504" class="names">{calma}[i]v{tinco}[o]\{anga}+pal{anna}/{numen}/..</text>
<text x="20" y="6582" class="gan">qi4 na3 li3</text>
<text x="20" y="6640" class="hanzi">еҺ»е“ӘиЈЎ</text>
<text x="20" y="6698" class="tengwar">оҖўоҒ«оҒ„оҒҶоҖ…оҒҖоҒ•оҖҰоҒ„оҒ•</text>
<text x="20" y="6756" class="names">{anga}+pal[i]/{numen}[a]v{lambe}[i]v</text>
<text x="20" y="6834" class="gan">set7 fan4</text>
<text x="20" y="6892" class="hanzi">йЈҹйЈҜ</text>
<text x="20" y="6950" class="tengwar">оҖғоҒҶоҖҒоҒ”оҒғоҖ“оҒҖоҖ…оҒҶ</text>
<text x="20" y="7008" class="names">{thule}/{tinco}\..{formen}[a]{numen}/</text>
<text x="20" y="7086" class="gan">in3 sui3</text>
<text x="20" y="7144" class="hanzi">йЈІж°ҙ</text>
<text x="20" y="7202" class="tengwar">оҖҜоҒ„оҖ…оҒ•оҖғоҖӯоҒ„оҒ•</text>
<text x="20" y="7260" class="names">{telco}[i]{numen}v{thule}{vala}[i]v</text>
</svg>