<svg xmlns="http://www.w3.org/2000/svg" width="1400" height="6068">
<defs><style>
.gan { font-family: sans-serif; font-size: 24px; fill: #666; }
.hanzi { font-family: "Songti SC", "Noto Serif CJK SC", serif; font-size: 33px; }
.tengwar { font-family: "Alcarin Tengwar"; font-size: 48px; }
.names { font-family: monospace; font-size: 16px; fill: #999; }
</style></defs>
<rect width="1400" height="6068" fill="white"/>
<text x="20" y="30" class="gan">tien1</text>
<text x="20" y="88" class="hanzi">еӨ©</text>
<text x="20" y="146" class="tengwar">оҖӮоҖ§оҒҶоҖ…оҒ”</text>
<text x="20" y="204" class="names">{ando}{anna}/{numen}\</text>
<text x="20" y="282" class="gan">ti4</text>
<text x="20" y="340" class="hanzi">ең°</text>
<text x="20" y="398" class="tengwar">оҖӮоҒ„оҒҶ</text>
<text x="20" y="456" class="names">{ando}[i]/</text>
<text x="20" y="534" class="gan">san1</text>
<text x="20" y="592" class="hanzi">еұұ</text>
<text x="20" y="650" class="tengwar">оҖғоҒҖоҖ…оҒ”</text>
<text x="20" y="708" class="names">{thule}[a]{numen}\</text>
<text x="20" y="786" class="gan">sui3</text>
<text x="20" y="844" class="hanzi">ж°ҙ</text>
<text x="20" y="902" class="tengwar">оҖғоҖӯоҒ„оҒ•</text>
<text x="20" y="960" class="names">{thule}{vala}[i]v</text>
<text x="20" y="1038" class="gan">ngit7 teu2</text>
<text x="20" y="1096" class="hanzi">ж—Ҙй ӯ</text>
<text x="20" y="1154" class="tengwar">оҖҘоҒ„оҖҒоҒ”оҒғоҖӮоҒҶоҒҶоҒғ</text>
<text x="20" y="1212" class="names">{noldo}[i]{tinco}\..{ando}//..</text>
<text x="20" y="1290" class="gan">ngiet7 guong1</text>
<text x="20" y="1348" class="hanzi">жңҲе…ү</text>
<text x="20" y="1406" class="tengwar">оҖҘоҖ§оҒҶоҖҒоҒ”оҒғоҖЎоҒүоҒ”</text>
<text x="20" y="1464" class="names">{noldo}{anna}/{tinco}\..{calma}[u]\</text>
<text x="20" y="1542" class="gan">fung1</text>
<text x="20" y="1600" class="hanzi">йўЁ</text>
<text x="20" y="1658" class="tengwar">оҖ“оҒүоҖҘоҒ”</text>
<text x="20" y="1716" class="names">{formen}[u]{noldo}\</text>
<text x="20" y="1794" class="gan">yu3</text>
<text x="20" y="1852" class="hanzi">йӣЁ</text>
<text x="20" y="1910" class="tengwar">оҖ®оҒүоҒ„оҒ•</text>
<text x="20" y="1968" class="names">{telco}[u][i]v</text>
<text x="20" y="2046" class="gan">ngin2 xin1 qi2 tai4 san1 i2</text>
<text x="20" y="2104" class="hanzi">дәәеҝғйҪҠжі°еұұз§»</text>
<text x="20" y="2162" class="tengwar">оҖҘоҒ„оҖ…оҒҶоҒғоҖЈоҒ«оҒ„оҖ…оҒ”оҖўоҒ«оҒ„оҒҶоҒғоҖӮоҒҖоҒҶоҖғоҒҖоҖ…оҒ”оҖ®оҒ„оҒҶоҒғ</text>
<text x="20" y="2220" class="names">{noldo}[i]{numen}/..{hwesta}+pal[i]{numen}\{anga}+pal[i]/..{ando}[a]/{thule}[a]{numen}\{telco}[i]/..</text>
<text x="20" y="2298" class="gan">iu3 zii3 za3 sii4 ging4 sen2</text>
<text x="20" y="2356" class="hanzi">жңүеҝ—иҖ…дәӢз«ҹжҲҗ</text>
<text x="20" y="2414" class="tengwar">оҖ®оҖ§оҒүоҒ•оҖүоҒ…оҒ•оҖүоҒҖоҒ•оҖғоҒ…оҒҶоҖЎоҒ„оҖҘоҒҶоҖғоҒҶоҖ…оҒҶоҒғ</text>
<text x="20" y="2472" class="names">{telco}{anna}[u]v{tinco_ext}[ii/.]v{tinco_ext}[a]v{thule}[ii/.]/{calma}[i]{noldo}/{thule}/{numen}/..</text>
<text x="20" y="2550" class="gan">qien1 li3 zii1 hang2 sii3 yu2 zuk7 ha4</text>
<text x="20" y="2608" class="hanzi">еҚғйҮҢд№ӢиЎҢе§Ӣж–ји¶ідёӢ</text>
<text x="20" y="2666" class="tengwar">оҖўоҒ«оҖ§оҒҶоҖ…оҒ”оҖҰоҒ„оҒ•оҖүоҒ…оҒ”оҖЈоҒҖоҖҘоҒҶоҒғоҖғоҒ…оҒ•оҖ®оҒүоҒ„оҒҶоҒғоҖүоҒүоҖЎоҒ”оҒғоҖЈоҒҖоҒҶ</text>
<text x="20" y="2724" class="names">{anga}+pal{anna}/{numen}\{lambe}[i]v{tinco_ext}[ii/.]\{hwesta}[a]{noldo}/..{thule}[ii/.]v{telco}[u][i]/..{tinco_ext}[u]{calma}\..{hwesta}[a]/</text>
<text x="20" y="2802" class="gan">ba1 ba1</text>
<text x="20" y="2860" class="hanzi">зҲёзҲё</text>
<text x="20" y="2918" class="tengwar">оҖ‘оҒҖоҒ”оҖ‘оҒҖоҒ”</text>
<text x="20" y="2976" class="names">{parma}[a]\{parma}[a]\</text>
<text x="20" y="3054" class="gan">ma1 ma1</text>
<text x="20" y="3112" class="hanzi">еӘҪеӘҪ</text>
<text x="20" y="3170" class="tengwar">оҖ•оҒҖоҒ”оҖ•оҒҖоҒ”</text>
<text x="20" y="3228" class="names">{malta}[a]\{malta}[a]\</text>
<text x="20" y="3306" class="gan">xiung1 ti4</text>
<text x="20" y="3364" class="hanzi">е…„ејҹ</text>
<text x="20" y="3422" class="tengwar">оҖЈоҒ«оҖ§оҒүоҖҘоҒ”оҖӮоҒ„оҒҶ</text>
<text x="20" y="3480" class="names">{hwesta}+pal{anna}[u]{noldo}\{ando}[i]/</text>
<text x="20" y="3558" class="gan">zi3 mui4</text>
<text x="20" y="3616" class="hanzi">е§ҠеҰ№</text>
<text x="20" y="3674" class="tengwar">оҖүоҒ„оҒ•оҖ•оҖӯоҒ„оҒҶ</text>
<text x="20" y="3732" class="names">{tinco_ext}[i]v{malta}{vala}[i]/</text>
<text x="20" y="3810" class="gan">uk7 li3</text>
<text x="20" y="3868" class="hanzi">еұӢйҮҢ</text>
<text x="20" y="3926" class="tengwar">оҖ®оҒүоҖЎоҒ”оҒғоҖҰоҒ„оҒ•</text>
<text x="20" y="3984" class="names">{telco}[u]{calma}\..{lambe}[i]v</text>
<text x="20" y="4062" class="gan">ngin2 kak6</text>
<text x="20" y="4120" class="hanzi">дәәе®ў</text>
<text x="20" y="4178" class="tengwar">оҖҘоҒ„оҖ…оҒҶоҒғоҖўоҒҖоҖЎоҒҗ</text>
<text x="20" y="4236" class="names">{noldo}[i]{numen}/..{anga}[a]{calma}_</text>
<text x="20" y="4314" class="gan">set7</text>
<text x="20" y="4372" class="hanzi">еҚҒ</text>
<text x="20" y="4430" class="tengwar">оҖғоҒҶоҖҒоҒ”оҒғ</text>
<text x="20" y="4488" class="names">{thule}/{tinco}\..</text>
<text x="20" y="4566" class="gan">nit6</text>
<text x="20" y="4624" class="hanzi">е…Ҙ</text>
<text x="20" y="4682" class="tengwar">оҖ…оҒ„оҖҒоҒҗ</text>
<text x="20" y="4740" class="names">{numen}[i]{tinco}_</text>
<text x="20" y="4818" class="gan">dat6</text>
<text x="20" y="4876" class="hanzi">зӯ”</text>
<text x="20" y="4934" class="tengwar">оҖҒоҒҖоҖҒоҒҗ</text>
<text x="20" y="4992" class="names">{tinco}[a]{tinco}_</text>
<text x="20" y="5070" class="gan">bak6</text>
<text x="20" y="5128" class="hanzi">зҷҫ</text>
<text x="20" y="5186" class="tengwar">оҖ‘оҒҖоҖЎоҒҗ</text>
<text x="20" y="5244" class="names">{parma}[a]{calma}_</text>
<text x="20" y="5322" class="gan">sii3</text>
<text x="20" y="5380" class="hanzi">еӣӣ</text>
<text x="20" y="5438" class="tengwar">оҖғоҒ…оҒ•</text>
<text x="20" y="5496" class="names">{thule}[ii/.]v</text>
<text x="20" y="5574" class="gan">cii2</text>
<text x="20" y="5632" class="hanzi">и©һ</text>
<text x="20" y="5690" class="tengwar">оҖҠоҒ…оҒҶоҒғ</text>
<text x="20" y="5748" class="names">{ando_ext}[ii/.]/..</text>
<text x="20" y="5826" class="gan">zii5</text>
<text x="20" y="5884" class="hanzi">иҮӘ</text>
<text x="20" y="5942" class="tengwar">оҖүоҒ…оҒҗоҒғ</text>
<text x="20" y="6000" class="names">{tinco_ext}[ii/.]_..</text>
</svg>