<svg xmlns="http://www.w3.org/2000/svg" width="1400" height="2540">
<defs><style>
.tailo { font-family: sans-serif; font-size: 24px; fill: #666; }
.hanzi { font-family: "Songti SC", "Noto Serif CJK SC", serif; font-size: 33px; }
.tengwar { font-family: "Alcarin Tengwar"; font-size: 48px; }
.names { font-family: monospace; font-size: 16px; fill: #999; }
</style></defs>
<rect width="1400" height="2540" fill="white"/>
<text x="20" y="30" class="tailo">li2 ho2</text>
<text x="20" y="88" class="hanzi">дҪ еҘҪ</text>
<text x="20" y="146" class="tengwar">оҖҰоҒ„оҒ”оҖ©оҒҲоҒ”</text>
<text x="20" y="204" class="names">{lambe}[i]\{halla}[o]\</text>
<text x="20" y="282" class="tailo">gua2</text>
<text x="20" y="340" class="hanzi">жҲ‘</text>
<text x="20" y="398" class="tengwar">оҖўоҖӯоҒҖоҒ”</text>
<text x="20" y="456" class="names">{anga}{vala}[a]\</text>
<text x="20" y="534" class="tailo">li2</text>
<text x="20" y="592" class="hanzi">дҪ </text>
<text x="20" y="650" class="tengwar">оҖҰоҒ„оҒ”</text>
<text x="20" y="708" class="names">{lambe}[i]\</text>
<text x="20" y="786" class="tailo">i1</text>
<text x="20" y="844" class="hanzi">дјҠ</text>
<text x="20" y="902" class="tengwar">оҖҜоҒ„оҒҗ</text>
<text x="20" y="960" class="names">{telco}[i]_</text>
<text x="20" y="1038" class="tailo">to1 sia7</text>
<text x="20" y="1096" class="hanzi">еӨҡи¬қ</text>
<text x="20" y="1154" class="tengwar">оҖҒоҒҲоҒҗоҖғоҖ§оҒҖоҒҗоҒ…</text>
<text x="20" y="1212" class="names">{tinco}[o]_{thule}{anna}[a]_[./mid]</text>
<text x="20" y="1290" class="tailo">m7 bian2</text>
<text x="20" y="1348" class="hanzi">жҜӢе…Қ</text>
<text x="20" y="1406" class="tengwar">оҖ•оҒҗоҒ…оҖ’оҖ§оҒҖоҖ…оҒ”</text>
<text x="20" y="1464" class="names">{malta}_[./mid]{umbar}{anna}[a]{numen}\</text>
<text x="20" y="1542" class="tailo">tsai3 hue7</text>
<text x="20" y="1600" class="hanzi">еҶҚжңғ</text>
<text x="20" y="1658" class="tengwar">оҖүоҒҖоҒ”оҒғоҖ©оҖӯоҒҶоҒҗоҒ…</text>
<text x="20" y="1716" class="names">{tinco_ext}[a]\..{halla}{vala}[e/rise]_[./mid]</text>
<text x="20" y="1794" class="tailo">tsa2 khГӯ2</text>
<text x="20" y="1852" class="hanzi">ж—©иө·</text>
<text x="20" y="1910" class="tengwar">оҖүоҒҖоҒ”оҖЎоҒ°</text>
<text x="20" y="1968" class="names">{tinco_ext}[a]\{calma}+asp</text>
<text x="20" y="2046" class="tailo">tsiah8 pa3 bue7</text>
<text x="20" y="2104" class="hanzi">йЈҹйЈҪжңӘ</text>
<text x="20" y="2162" class="tengwar">оҖүоҖ§оҒҖоҖ©оҒҗоҖ‘оҒҖоҒ”оҒғоҖ’оҖӯоҒҶоҒҗоҒ…</text>
<text x="20" y="2220" class="names">{tinco_ext}{anna}[a]{halla}_{parma}[a]\..{umbar}{vala}[e/rise]_[./mid]</text>
<text x="20" y="2298" class="tailo">ho2 lah4</text>
<text x="20" y="2356" class="hanzi">еҘҪе•Ұ</text>
<text x="20" y="2414" class="tengwar">оҖ©оҒҲоҒ”оҖҰоҒҖоҖ©</text>
<text x="20" y="2472" class="names">{halla}[o]\{lambe}[a]{halla}</text>
</svg>