<svg xmlns="http://www.w3.org/2000/svg" width="1000" height="2540">
<defs><style>
.tailo { font-family: sans-serif; font-size: 24px; fill: #666; }
.hanzi { font-family: "Songti SC", "Noto Serif CJK SC", serif; font-size: 33px; }
.tengwar { font-family: "Alcarin Tengwar"; font-size: 48px; }
.names { font-family: monospace; font-size: 16px; fill: #999; }
</style></defs>
<rect width="1000" height="2540" fill="white"/>
<text x="20" y="30" class="tailo">sann1</text>
<text x="20" y="88" class="hanzi">ф╕Й</text>
<text x="20" y="146" class="tengwar">юАГюБАюБСюБР</text>
<text x="20" y="204" class="names">{thule}[a][~]_</text>
<text x="20" y="282" class="tailo">tinn1</text>
<text x="20" y="340" class="hanzi">чФЬ</text>
<text x="20" y="398" class="tengwar">юАБюБДюБСюБР</text>
<text x="20" y="456" class="names">{tinco}[i][~]_</text>
<text x="20" y="534" class="tailo">phinn7</text>
<text x="20" y="592" class="hanzi">щ╝╗</text>
<text x="20" y="650" class="tengwar">юАТюБДюБСюБРюБЕ</text>
<text x="20" y="708" class="names">{umbar}[i][~]_[./mid]</text>
<text x="20" y="786" class="tailo">hinn7</text>
<text x="20" y="844" class="hanzi">шА│</text>
<text x="20" y="902" class="tengwar">юАйюБДюБСюБРюБЕ</text>
<text x="20" y="960" class="names">{halla}[i][~]_[./mid]</text>
<text x="20" y="1038" class="tailo">kinn3</text>
<text x="20" y="1096" class="hanzi">шжЛ</text>
<text x="20" y="1154" class="tengwar">юАбюБДюБСюБФюБГ</text>
<text x="20" y="1212" class="names">{calma}[i][~]\..</text>
<text x="20" y="1290" class="tailo">guann5</text>
<text x="20" y="1348" class="hanzi">хпТ</text>
<text x="20" y="1406" class="tengwar">юАгюАнюБАюБСюБЖ</text>
<text x="20" y="1464" class="names">{hwesta}{vala}[a][~][e/rise]</text>
<text x="20" y="1542" class="tailo">suann1</text>
<text x="20" y="1600" class="hanzi">х▒▒</text>
<text x="20" y="1658" class="tengwar">юАГюАнюБАюБСюБР</text>
<text x="20" y="1716" class="names">{thule}{vala}[a][~]_</text>
<text x="20" y="1794" class="tailo">kuann1</text>
<text x="20" y="1852" class="hanzi">щЧЬ</text>
<text x="20" y="1910" class="tengwar">юАбюАнюБАюБСюБР</text>
<text x="20" y="1968" class="names">{calma}{vala}[a][~]_</text>
<text x="20" y="2046" class="tailo">mng5</text>
<text x="20" y="2104" class="hanzi">щЦА</text>
<text x="20" y="2162" class="tengwar">юАХюАеюБЖ</text>
<text x="20" y="2220" class="names">{malta}{noldo}[e/rise]</text>
<text x="20" y="2298" class="tailo">ang5</text>
<text x="20" y="2356" class="hanzi">ч┤Е</text>
<text x="20" y="2414" class="tengwar">юАпюБАюАеюБЖ</text>
<text x="20" y="2472" class="names">{telco}[a]{noldo}[e/rise]</text>
</svg>