<svg xmlns="http://www.w3.org/2000/svg" width="1400" height="2540">
<defs><style>
.tailo { font-family: sans-serif; font-size: 24px; fill: #666; }
.hanzi { font-family: "Songti SC", "Noto Serif CJK SC", serif; font-size: 33px; }
.tengwar { font-family: "Alcarin Tengwar"; font-size: 48px; }
.names { font-family: monospace; font-size: 16px; fill: #999; }
</style></defs>
<rect width="1400" height="2540" fill="white"/>
<text x="20" y="30" class="tailo">sann1</text>
<text x="20" y="88" class="hanzi">дёү</text>
<text x="20" y="146" class="tengwar">оҖғоҒҖоҒ‘оҒҗ</text>
<text x="20" y="204" class="names">{thule}[a][~]_</text>
<text x="20" y="282" class="tailo">tinn1</text>
<text x="20" y="340" class="hanzi">з”ң</text>
<text x="20" y="398" class="tengwar">оҖҒоҒ„оҒ‘оҒҗ</text>
<text x="20" y="456" class="names">{tinco}[i][~]_</text>
<text x="20" y="534" class="tailo">phinn7</text>
<text x="20" y="592" class="hanzi">йј»</text>
<text x="20" y="650" class="tengwar">оҖ‘оҒ°оҒ„оҒ‘оҒҗоҒ…</text>
<text x="20" y="708" class="names">{parma}+asp[i][~]_[./mid]</text>
<text x="20" y="786" class="tailo">hinn7</text>
<text x="20" y="844" class="hanzi">иҖі</text>
<text x="20" y="902" class="tengwar">оҖ©оҒ„оҒ‘оҒҗоҒ…</text>
<text x="20" y="960" class="names">{halla}[i][~]_[./mid]</text>
<text x="20" y="1038" class="tailo">kinn3</text>
<text x="20" y="1096" class="hanzi">иҰӢ</text>
<text x="20" y="1154" class="tengwar">оҖЎоҒ„оҒ‘оҒ”оҒғ</text>
<text x="20" y="1212" class="names">{calma}[i][~]\..</text>
<text x="20" y="1290" class="tailo">guann5</text>
<text x="20" y="1348" class="hanzi">еҜ’</text>
<text x="20" y="1406" class="tengwar">оҖўоҖӯоҒҖоҒ‘оҒҶ</text>
<text x="20" y="1464" class="names">{anga}{vala}[a][~][e/rise]</text>
<text x="20" y="1542" class="tailo">suann1</text>
<text x="20" y="1600" class="hanzi">еұұ</text>
<text x="20" y="1658" class="tengwar">оҖғоҖӯоҒҖоҒ‘оҒҗ</text>
<text x="20" y="1716" class="names">{thule}{vala}[a][~]_</text>
<text x="20" y="1794" class="tailo">kuann1</text>
<text x="20" y="1852" class="hanzi">й—ң</text>
<text x="20" y="1910" class="tengwar">оҖЎоҖӯоҒҖоҒ‘оҒҗ</text>
<text x="20" y="1968" class="names">{calma}{vala}[a][~]_</text>
<text x="20" y="2046" class="tailo">mng5</text>
<text x="20" y="2104" class="hanzi">й–Җ</text>
<text x="20" y="2162" class="tengwar">оҖ•оҖҘоҒҶ</text>
<text x="20" y="2220" class="names">{malta}{noldo}[e/rise]</text>
<text x="20" y="2298" class="tailo">ang5</text>
<text x="20" y="2356" class="hanzi">зҙ…</text>
<text x="20" y="2414" class="tengwar">оҖҜоҒҖоҖҘоҒҶ</text>
<text x="20" y="2472" class="names">{telco}[a]{noldo}[e/rise]</text>
</svg>