<svg xmlns="http://www.w3.org/2000/svg" width="1400" height="3296">
<defs><style>
.tailo { font-family: sans-serif; font-size: 24px; fill: #666; }
.hanzi { font-family: "Songti SC", "Noto Serif CJK SC", serif; font-size: 33px; }
.tengwar { font-family: "Alcarin Tengwar"; font-size: 48px; }
.names { font-family: monospace; font-size: 16px; fill: #999; }
</style></defs>
<rect width="1400" height="3296" fill="white"/>
<text x="20" y="30" class="tailo">Romanization</text>
<text x="20" y="88" class="hanzi">Hanzi</text>
<text x="20" y="146" class="tengwar">оЂ®</text>
<text x="20" y="204" class="names">{telco}</text>
<text x="20" y="282" class="tailo">tsit8</text>
<text x="20" y="340" class="hanzi">дёЂ</text>
<text x="20" y="398" class="tengwar">оЂ‰оЃ„оЂЃоЃђ</text>
<text x="20" y="456" class="names">{tinco_ext}[i]{tinco}_</text>
<text x="20" y="534" class="tailo">nng7</text>
<text x="20" y="592" class="hanzi">е…©</text>
<text x="20" y="650" class="tengwar">оЂ…оЂҐоЃђоЃ…</text>
<text x="20" y="708" class="names">{numen}{noldo}_[./mid]</text>
<text x="20" y="786" class="tailo">sann1</text>
<text x="20" y="844" class="hanzi">дё‰</text>
<text x="20" y="902" class="tengwar">оЂѓоЃЂоЃ‘оЃђ</text>
<text x="20" y="960" class="names">{thule}[a][~]_</text>
<text x="20" y="1038" class="tailo">si3</text>
<text x="20" y="1096" class="hanzi">е››</text>
<text x="20" y="1154" class="tengwar">оЂѓоЃ„оЃ”оЃѓ</text>
<text x="20" y="1212" class="names">{thule}[i]\..</text>
<text x="20" y="1290" class="tailo">goo7</text>
<text x="20" y="1348" class="hanzi">дє”</text>
<text x="20" y="1406" class="tengwar">оЂўоЃ€оЃ…оЃђоЃ…</text>
<text x="20" y="1464" class="names">{anga}[oo]_[./mid]</text>
<text x="20" y="1542" class="tailo">lak8</text>
<text x="20" y="1600" class="hanzi">е…­</text>
<text x="20" y="1658" class="tengwar">оЂ¦оЃЂоЂЎоЃђ</text>
<text x="20" y="1716" class="names">{lambe}[a]{calma}_</text>
<text x="20" y="1794" class="tailo">tshit4</text>
<text x="20" y="1852" class="hanzi">дёѓ</text>
<text x="20" y="1910" class="tengwar">оЂ‰оЃ°оЃ„оЂЃ</text>
<text x="20" y="1968" class="names">{tinco_ext}+asp[i]{tinco}</text>
<text x="20" y="2046" class="tailo">peh4</text>
<text x="20" y="2104" class="hanzi">е…«</text>
<text x="20" y="2162" class="tengwar">оЂ‘оЃ†оЂ©</text>
<text x="20" y="2220" class="names">{parma}[e/rise]{halla}</text>
<text x="20" y="2298" class="tailo">kau2</text>
<text x="20" y="2356" class="hanzi">д№ќ</text>
<text x="20" y="2414" class="tengwar">оЂЎоЃЂоЃ”</text>
<text x="20" y="2472" class="names">{calma}[a]\</text>
<text x="20" y="2550" class="tailo">tsap8</text>
<text x="20" y="2608" class="hanzi">еЌЃ</text>
<text x="20" y="2666" class="tengwar">оЂ‰оЃЂоЂ‘оЃђ</text>
<text x="20" y="2724" class="names">{tinco_ext}[a]{parma}_</text>
<text x="20" y="2802" class="tailo">pah4</text>
<text x="20" y="2860" class="hanzi">з™ѕ</text>
<text x="20" y="2918" class="tengwar">оЂ‘оЃЂоЂ©</text>
<text x="20" y="2976" class="names">{parma}[a]{halla}</text>
<text x="20" y="3054" class="tailo">tshing1</text>
<text x="20" y="3112" class="hanzi">еЌѓ</text>
<text x="20" y="3170" class="tengwar">оЂ‰оЃ°оЃ„оЂҐоЃђ</text>
<text x="20" y="3228" class="names">{tinco_ext}+asp[i]{noldo}_</text>
</svg>