<svg xmlns="http://www.w3.org/2000/svg" width="1000" height="3044">
<defs><style>
.tailo { font-family: sans-serif; font-size: 24px; fill: #666; }
.hanzi { font-family: "Songti SC", "Noto Serif CJK SC", serif; font-size: 33px; }
.tengwar { font-family: "Alcarin Tengwar"; font-size: 48px; }
.names { font-family: monospace; font-size: 16px; fill: #999; }
</style></defs>
<rect width="1000" height="3044" fill="white"/>
<text x="20" y="30" class="tailo">tsit8</text>
<text x="20" y="88" class="hanzi">дёҖ</text>
<text x="20" y="146" class="tengwar">оҖүоҒ„оҖҒоҒҗ</text>
<text x="20" y="204" class="names">{tinco_ext}[i]{tinco}_</text>
<text x="20" y="282" class="tailo">nng7</text>
<text x="20" y="340" class="hanzi">е…©</text>
<text x="20" y="398" class="tengwar">оҖ…оҖҘоҒҗоҒ…</text>
<text x="20" y="456" class="names">{numen}{noldo}_[./mid]</text>
<text x="20" y="534" class="tailo">sann1</text>
<text x="20" y="592" class="hanzi">дёү</text>
<text x="20" y="650" class="tengwar">оҖғоҒҖоҒ‘оҒҗ</text>
<text x="20" y="708" class="names">{thule}[a][~]_</text>
<text x="20" y="786" class="tailo">si3</text>
<text x="20" y="844" class="hanzi">еӣӣ</text>
<text x="20" y="902" class="tengwar">оҖғоҒ„оҒ”оҒғ</text>
<text x="20" y="960" class="names">{thule}[i]\..</text>
<text x="20" y="1038" class="tailo">goo7</text>
<text x="20" y="1096" class="hanzi">дә”</text>
<text x="20" y="1154" class="tengwar">оҖўоҒҲоҒ…оҒҗоҒ…</text>
<text x="20" y="1212" class="names">{anga}[oo]_[./mid]</text>
<text x="20" y="1290" class="tailo">lak8</text>
<text x="20" y="1348" class="hanzi">е…ӯ</text>
<text x="20" y="1406" class="tengwar">оҖҰоҒҖоҖЎоҒҗ</text>
<text x="20" y="1464" class="names">{lambe}[a]{calma}_</text>
<text x="20" y="1542" class="tailo">tshit4</text>
<text x="20" y="1600" class="hanzi">дёғ</text>
<text x="20" y="1658" class="tengwar">оҖүоҒ°оҒ„оҖҒ</text>
<text x="20" y="1716" class="names">{tinco_ext}+asp[i]{tinco}</text>
<text x="20" y="1794" class="tailo">peh4</text>
<text x="20" y="1852" class="hanzi">е…«</text>
<text x="20" y="1910" class="tengwar">оҖ‘оҒҶоҖ©</text>
<text x="20" y="1968" class="names">{parma}[e/rise]{halla}</text>
<text x="20" y="2046" class="tailo">kau2</text>
<text x="20" y="2104" class="hanzi">д№қ</text>
<text x="20" y="2162" class="tengwar">оҖЎоҒҖоҒ”</text>
<text x="20" y="2220" class="names">{calma}[a]\</text>
<text x="20" y="2298" class="tailo">tsap8</text>
<text x="20" y="2356" class="hanzi">еҚҒ</text>
<text x="20" y="2414" class="tengwar">оҖүоҒҖоҖ‘оҒҗ</text>
<text x="20" y="2472" class="names">{tinco_ext}[a]{parma}_</text>
<text x="20" y="2550" class="tailo">pah4</text>
<text x="20" y="2608" class="hanzi">зҷҫ</text>
<text x="20" y="2666" class="tengwar">оҖ‘оҒҖоҖ©</text>
<text x="20" y="2724" class="names">{parma}[a]{halla}</text>
<text x="20" y="2802" class="tailo">tshing1</text>
<text x="20" y="2860" class="hanzi">еҚғ</text>
<text x="20" y="2918" class="tengwar">оҖүоҒ°оҒ„оҖҘоҒҗ</text>
<text x="20" y="2976" class="names">{tinco_ext}+asp[i]{noldo}_</text>
</svg>