<svg xmlns="http://www.w3.org/2000/svg" width="1400" height="2540">
<defs><style>
.tailo { font-family: sans-serif; font-size: 24px; fill: #666; }
.hanzi { font-family: "Songti SC", "Noto Serif CJK SC", serif; font-size: 33px; }
.tengwar { font-family: "Alcarin Tengwar"; font-size: 48px; }
.names { font-family: monospace; font-size: 16px; fill: #999; }
</style></defs>
<rect width="1400" height="2540" fill="white"/>
<text x="20" y="30" class="tailo">tai5 uan5</text>
<text x="20" y="88" class="hanzi">еҸ°зҒЈ</text>
<text x="20" y="146" class="tengwar">оҖҒоҒҖоҒҶоҖҜоҖӯоҒҖоҖ…оҒҶ</text>
<text x="20" y="204" class="names">{tinco}[a][e/rise]{telco}{vala}[a]{numen}[e/rise]</text>
<text x="20" y="282" class="tailo">tai5 pak4</text>
<text x="20" y="340" class="hanzi">еҸ°еҢ—</text>
<text x="20" y="398" class="tengwar">оҖҒоҒҖоҒҶоҖ‘оҒҖоҖЎ</text>
<text x="20" y="456" class="names">{tinco}[a][e/rise]{parma}[a]{calma}</text>
<text x="20" y="534" class="tailo">tai5 lam5</text>
<text x="20" y="592" class="hanzi">еҸ°еҚ—</text>
<text x="20" y="650" class="tengwar">оҖҒоҒҖоҒҶоҖҰоҒҖоҖ•оҒҶ</text>
<text x="20" y="708" class="names">{tinco}[a][e/rise]{lambe}[a]{malta}[e/rise]</text>
<text x="20" y="786" class="tailo">ko1 hiong5</text>
<text x="20" y="844" class="hanzi">й«ҳйӣ„</text>
<text x="20" y="902" class="tengwar">оҖЎоҒҲоҒҗоҖ©оҖ§оҒҲоҖҘоҒҶ</text>
<text x="20" y="960" class="names">{calma}[o]_{halla}{anna}[o]{noldo}[e/rise]</text>
<text x="20" y="1038" class="tailo">hok4 kian3</text>
<text x="20" y="1096" class="hanzi">зҰҸе»ә</text>
<text x="20" y="1154" class="tengwar">оҖ©оҒҲоҖЎоҖЎоҖ§оҒҖоҖ…оҒ”оҒғ</text>
<text x="20" y="1212" class="names">{halla}[o]{calma}{calma}{anna}[a]{numen}\..</text>
<text x="20" y="1290" class="tailo">e7 mng5</text>
<text x="20" y="1348" class="hanzi">е»Ҳй–Җ</text>
<text x="20" y="1406" class="tengwar">оҖҜоҒҶоҒҗоҒ…оҖ•оҖҘоҒҶ</text>
<text x="20" y="1464" class="names">{telco}[e/rise]_[./mid]{malta}{noldo}[e/rise]</text>
<text x="20" y="1542" class="tailo">tsuan5 tsiu1</text>
<text x="20" y="1600" class="hanzi">жіүе·һ</text>
<text x="20" y="1658" class="tengwar">оҖүоҖӯоҒҖоҖ…оҒҶоҖүоҖ§оҒүоҒҗ</text>
<text x="20" y="1716" class="names">{tinco_ext}{vala}[a]{numen}[e/rise]{tinco_ext}{anna}[u]_</text>
<text x="20" y="1794" class="tailo">tsiang1 tsiu1</text>
<text x="20" y="1852" class="hanzi">жјіе·һ</text>
<text x="20" y="1910" class="tengwar">оҖүоҖ§оҒҖоҖҘоҒҗоҖүоҖ§оҒүоҒҗ</text>
<text x="20" y="1968" class="names">{tinco_ext}{anna}[a]{noldo}_{tinco_ext}{anna}[u]_</text>
<text x="20" y="2046" class="tailo">sin1 ka1 pho1</text>
<text x="20" y="2104" class="hanzi">ж–°еҠ еқЎ</text>
<text x="20" y="2162" class="tengwar">оҖғоҒ„оҖ…оҒҗоҖЎоҒҖоҒҗоҖ‘оҒ°оҒҲоҒҗ</text>
<text x="20" y="2220" class="names">{thule}[i]{numen}_{calma}[a]_{parma}+asp[o]_</text>
<text x="20" y="2298" class="tailo">ma2 lai5</text>
<text x="20" y="2356" class="hanzi">йҰ¬дҫҶ</text>
<text x="20" y="2414" class="tengwar">оҖ•оҒҖоҒ”оҖҰоҒҖоҒҶ</text>
<text x="20" y="2472" class="names">{malta}[a]\{lambe}[a][e/rise]</text>
</svg>